<svg width="31" height="34" viewBox="0 0 31 34" fill="none" xmlns="http://www.w3.org/2000/svg">
<g clip-path="url(#clip0_3364_69808)">
<mask id="mask0_3364_69808" style="mask-type:alpha" maskUnits="userSpaceOnUse" x="0" y="0" width="31" height="34">
<path d="M28.0276 34H3.36418C2.04985 34 0.984375 32.9127 0.984375 31.5714V2.42857C0.984375 1.08731 2.04985 0 3.36418 0H19.3738L30.4075 11.2597V31.5714C30.4075 32.9127 29.3419 34 28.0276 34Z" fill="url(#paint0_linear_3364_69808)"/>
</mask>
<g mask="url(#mask0_3364_69808)">
<path d="M28.0276 34H3.36418C2.04985 34 0.984375 32.9127 0.984375 31.5714V2.42857C0.984375 1.08731 2.04985 0 3.36418 0H19.3738L30.4075 11.2597V31.5714C30.4075 32.9127 29.3419 34 28.0276 34Z" fill="url(#paint1_linear_3364_69808)"/>
<g filter="url(#filter0_f_3364_69808)">
<g style="mix-blend-mode:darken">
<path d="M31.706 16.4473H12.4512V25.72H31.706V16.4473Z" fill="#CC1583" fill-opacity="0.15"/>
</g>
</g>
<path d="M15.4841 24.0408C14.7605 24.0408 14.0826 23.9013 13.4502 23.6222C13.3819 23.5932 13.3249 23.5466 13.2793 23.4827C13.2337 23.4129 13.2109 23.3403 13.2109 23.2647C13.2109 23.1659 13.2423 23.0815 13.3049 23.0118C13.3733 22.9361 13.4588 22.8984 13.5613 22.8984C13.6183 22.8984 13.6724 22.91 13.7237 22.9333C14.2478 23.1716 14.809 23.2908 15.4072 23.2908C16.4042 23.2908 16.9027 22.9566 16.9027 22.2879C16.9027 22.1135 16.8371 21.9681 16.7061 21.8519C16.5808 21.7357 16.4241 21.6455 16.2361 21.5816C16.0481 21.5118 15.7803 21.4304 15.4328 21.3374C14.9713 21.2153 14.5982 21.099 14.3133 20.9885C14.0285 20.8723 13.7835 20.7008 13.5784 20.474C13.3733 20.2473 13.2708 19.9449 13.2708 19.5671C13.2708 19.2357 13.3562 18.9363 13.5271 18.6688C13.698 18.3956 13.9487 18.1805 14.2791 18.0235C14.6153 17.8607 15.0169 17.7793 15.4841 17.7793C16.1108 17.7793 16.6776 17.8752 17.1847 18.0671C17.3442 18.1253 17.424 18.2415 17.424 18.4159C17.424 18.509 17.3926 18.5932 17.33 18.6688C17.2673 18.7444 17.1847 18.7822 17.0821 18.7822C17.0479 18.7822 17.0024 18.7706 16.9454 18.7473C16.501 18.5903 16.0424 18.5118 15.5695 18.5118C15.1195 18.5118 14.752 18.5991 14.4672 18.7735C14.188 18.9479 14.0484 19.1921 14.0484 19.506C14.0484 19.7153 14.1139 19.8869 14.245 20.0205C14.3817 20.1485 14.5498 20.2501 14.7492 20.3258C14.9543 20.3955 15.2306 20.4711 15.5781 20.5525C16.0282 20.663 16.3899 20.7734 16.6634 20.8839C16.9426 20.9944 17.179 21.1658 17.3727 21.3984C17.5721 21.631 17.6718 21.945 17.6718 22.3403C17.6718 22.6658 17.5806 22.9594 17.3983 23.2211C17.216 23.4768 16.9596 23.6774 16.6292 23.8228C16.2988 23.9682 15.9171 24.0408 15.4841 24.0408ZM21.4605 23.9972C21.2269 23.9972 21.0503 23.8635 20.9307 23.5961L18.8199 18.3723C18.8028 18.3258 18.7943 18.2764 18.7943 18.2241C18.7943 18.102 18.8285 18.006 18.8968 17.9363C18.9652 17.8607 19.0592 17.8229 19.1788 17.8229C19.2586 17.8229 19.3297 17.8491 19.3925 17.9014C19.4609 17.9479 19.5121 18.0119 19.5463 18.0932L21.5545 23.2036L23.5628 18.0932C23.597 18.0119 23.6453 17.9479 23.7081 17.9014C23.7764 17.8491 23.8504 17.8229 23.9302 17.8229C24.0499 17.8229 24.1439 17.8607 24.2122 17.9363C24.2806 18.006 24.3148 18.102 24.3148 18.2241C24.3148 18.2764 24.3062 18.3258 24.2892 18.3723L22.1784 23.5961C22.0587 23.8635 21.8821 23.9972 21.6485 23.9972H21.4605Z" fill="white"/>
<g filter="url(#filter1_d_3364_69808)">
<path d="M30.4077 11.2597H21.7538C20.4395 11.2597 19.374 10.1724 19.374 8.83117V0L30.4077 11.2597Z" fill="url(#paint2_linear_3364_69808)"/>
</g>
<path d="M13.4507 23.6223L13.5366 23.4196L13.5353 23.4191L13.5339 23.4185L13.4507 23.6223ZM13.2798 23.4828L13.0998 23.6052L13.1023 23.6089L13.1049 23.6126L13.2798 23.4828ZM13.3055 23.0118L13.1465 22.862L13.146 22.8627L13.3055 23.0118ZM13.7242 22.9334L13.8123 22.7317L13.8121 22.7316L13.7242 22.9334ZM16.7066 21.852L16.5611 22.0154L16.5629 22.017L16.5647 22.0186L16.7066 21.852ZM16.2366 21.5816L16.1627 21.7892L16.1654 21.7902L16.1682 21.791L16.2366 21.5816ZM15.4333 21.3375L15.4882 21.1238L15.4876 21.1237L15.4333 21.3375ZM14.3139 20.9886L14.2335 21.1936L14.2352 21.1943L14.237 21.195L14.3139 20.9886ZM13.5277 18.6689L13.7089 18.7895L13.7094 18.7886L13.71 18.7877L13.5277 18.6689ZM14.2797 18.0236L14.371 18.2237L14.3717 18.2234L14.3724 18.223L14.2797 18.0236ZM17.1852 18.0672L17.11 18.2741L17.1112 18.2746L17.1124 18.275L17.1852 18.0672ZM16.9459 18.7474L17.0263 18.5424L17.0215 18.5404L17.0167 18.5387L16.9459 18.7474ZM14.4677 18.7735L14.3564 18.5842L14.3555 18.5848L14.3547 18.5852L14.4677 18.7735ZM14.2455 20.0206L14.0925 20.1767L14.0958 20.1801L14.0993 20.1833L14.2455 20.0206ZM14.7497 20.3258L14.6744 20.5328L14.6778 20.5341L14.6813 20.5353L14.7497 20.3258ZM15.5786 20.5526L15.6292 20.3379L15.6281 20.3377L15.627 20.3374L15.5786 20.5526ZM16.6639 20.884L16.5843 21.0893L16.5857 21.0898L16.6639 20.884ZM17.3732 21.3985L17.2084 21.5415L17.2094 21.5427L17.2104 21.5439L17.3732 21.3985ZM17.3988 23.2211L17.5738 23.351L17.5745 23.3501L17.5752 23.3491L17.3988 23.2211ZM15.4846 23.8201C14.7891 23.8201 14.1405 23.6862 13.5366 23.4196L13.3649 23.825C14.0257 24.1165 14.733 24.2617 15.4846 24.2617V23.8201ZM13.5339 23.4185C13.504 23.4057 13.4781 23.3856 13.4548 23.3529L13.1049 23.6126C13.1727 23.7077 13.2608 23.7807 13.3675 23.8261L13.5339 23.4185ZM13.4598 23.3603C13.4353 23.3227 13.4278 23.292 13.4278 23.2647H12.9951C12.9951 23.3886 13.0332 23.5033 13.0998 23.6052L13.4598 23.3603ZM13.4278 23.2647C13.4278 23.2185 13.4406 23.1881 13.4649 23.161L13.146 22.8627C13.045 22.9751 12.9951 23.1134 12.9951 23.2647H13.4278ZM13.4644 23.1616C13.491 23.1322 13.5185 23.1192 13.5618 23.1192V22.6777C13.4001 22.6777 13.2566 22.7404 13.1465 22.862L13.4644 23.1616ZM13.5618 23.1192C13.589 23.1192 13.6132 23.1245 13.6363 23.1351L13.8121 22.7316C13.7327 22.6956 13.6486 22.6777 13.5618 22.6777V23.1192ZM13.6361 23.135C14.1892 23.3865 14.7805 23.5117 15.4077 23.5117V23.0701C14.8385 23.0701 14.3075 22.9569 13.8123 22.7317L13.6361 23.135ZM15.4077 23.5117C15.923 23.5117 16.3471 23.4266 16.6481 23.2247C16.965 23.0122 17.1195 22.688 17.1195 22.288H16.6868C16.6868 22.5566 16.5921 22.7339 16.4105 22.8556C16.2131 22.9881 15.8894 23.0701 15.4077 23.0701V23.5117ZM17.1195 22.288C17.1195 22.0486 17.026 21.8428 16.8486 21.6854L16.5647 22.0186C16.6493 22.0937 16.6868 22.1786 16.6868 22.288H17.1195ZM16.8522 21.6886C16.7011 21.5484 16.5168 21.4442 16.3051 21.3722L16.1682 21.791C16.3325 21.8469 16.4615 21.923 16.5611 22.0154L16.8522 21.6886ZM16.3106 21.3741C16.1132 21.3009 15.838 21.2176 15.4882 21.1238L15.3785 21.5511C15.7237 21.6435 15.984 21.7228 16.1627 21.7892L16.3106 21.3741ZM15.4876 21.1237C15.0301 21.0026 14.6653 20.8887 14.3907 20.7822L14.237 21.195C14.5321 21.3094 14.9137 21.4281 15.379 21.5512L15.4876 21.1237ZM14.3942 20.7836C14.1388 20.6794 13.9208 20.5265 13.7379 20.3243L13.42 20.6239C13.6472 20.8751 13.9192 21.0653 14.2335 21.1936L14.3942 20.7836ZM13.7379 20.3243C13.5776 20.1471 13.4876 19.9026 13.4876 19.5671H13.0549C13.0549 19.9874 13.1701 20.3476 13.42 20.6239L13.7379 20.3243ZM13.4876 19.5671C13.4876 19.2768 13.5618 19.0196 13.7089 18.7895L13.3464 18.5482C13.1517 18.853 13.0549 19.1947 13.0549 19.5671H13.4876ZM13.71 18.7877C13.8557 18.5549 14.0722 18.3657 14.371 18.2237L14.1884 17.8234C13.8262 17.9954 13.5415 18.2365 13.3453 18.5501L13.71 18.7877ZM14.3724 18.223C14.6731 18.0774 15.0416 18.0002 15.4846 18.0002V17.5586C14.9933 17.5586 14.5585 17.6441 14.1869 17.8241L14.3724 18.223ZM15.4846 18.0002C16.0896 18.0002 16.6305 18.0928 17.11 18.2741L17.2604 17.8602C16.7258 17.6578 16.133 17.5586 15.4846 17.5586V18.0002ZM17.1124 18.275C17.1593 18.2921 17.1784 18.3115 17.1874 18.3246C17.1965 18.3378 17.2081 18.3636 17.2081 18.416H17.6408C17.6408 18.294 17.6126 18.1743 17.5419 18.0714C17.4711 17.9681 17.3706 17.9003 17.258 17.8593L17.1124 18.275ZM17.2081 18.416C17.2081 18.4533 17.1972 18.4877 17.1653 18.5263L17.4956 18.8115C17.5891 18.6988 17.6408 18.5648 17.6408 18.416H17.2081ZM17.1653 18.5263C17.1464 18.5491 17.1257 18.5615 17.0827 18.5615V19.003C17.2447 19.003 17.3893 18.9398 17.4956 18.8115L17.1653 18.5263ZM17.0827 18.5615C17.0885 18.5615 17.0868 18.5623 17.0753 18.5594C17.0644 18.5565 17.0483 18.5513 17.0263 18.5424L16.8656 18.9524C16.9311 18.9791 17.0072 19.003 17.0827 19.003V18.5615ZM17.0167 18.5387C16.5494 18.3737 16.0669 18.2911 15.5701 18.2911V18.7327C16.019 18.7327 16.4537 18.8071 16.8752 18.956L17.0167 18.5387ZM15.5701 18.2911C15.0942 18.2911 14.6847 18.3832 14.3564 18.5842L14.579 18.9629C14.8203 18.815 15.1458 18.7327 15.5701 18.7327V18.2911ZM14.3547 18.5852C14.0163 18.7967 13.8326 19.1096 13.8326 19.5061H14.2653C14.2653 19.2747 14.3607 19.0992 14.5806 18.9619L14.3547 18.5852ZM13.8326 19.5061C13.8326 19.767 13.9164 19.997 14.0925 20.1767L14.3985 19.8645C14.3125 19.7768 14.2653 19.6637 14.2653 19.5061H13.8326ZM14.0993 20.1833C14.2594 20.3331 14.4526 20.4487 14.6744 20.5328L14.825 20.1189C14.648 20.0517 14.505 19.9639 14.3917 19.8579L14.0993 20.1833ZM14.6813 20.5353C14.8958 20.6082 15.1797 20.6857 15.5302 20.7677L15.627 20.3374C15.2825 20.2567 15.0138 20.183 14.8181 20.1164L14.6813 20.5353ZM15.528 20.7673C15.9731 20.8765 16.324 20.9841 16.5843 21.0893L16.7435 20.6786C16.4569 20.5628 16.0842 20.4496 15.6292 20.3379L15.528 20.7673ZM16.5857 21.0898C16.8313 21.187 17.038 21.3369 17.2084 21.5415L17.5381 21.2555C17.321 20.9949 17.0548 20.8018 16.7421 20.6781L16.5857 21.0898ZM17.2104 21.5439C17.3665 21.726 17.456 21.9831 17.456 22.3403H17.8887C17.8887 21.9068 17.7787 21.5362 17.536 21.2531L17.2104 21.5439ZM17.456 22.3403C17.456 22.6207 17.3784 22.8695 17.2225 23.0932L17.5752 23.3491C17.7839 23.0495 17.8887 22.711 17.8887 22.3403H17.456ZM17.2239 23.0913C17.0679 23.3102 16.8447 23.488 16.5441 23.6201L16.7154 24.0257C17.0756 23.8671 17.3652 23.6437 17.5738 23.351L17.2239 23.0913ZM16.5441 23.6201C16.2456 23.7515 15.894 23.8201 15.4846 23.8201V24.2617C15.9412 24.2617 16.353 24.1851 16.7154 24.0257L16.5441 23.6201ZM20.9312 23.5961L20.7312 23.6802L20.7327 23.6841L20.7344 23.6879L20.9312 23.5961ZM18.8205 18.3724L18.6178 18.4499L18.619 18.4533L18.6204 18.4565L18.8205 18.3724ZM18.8974 17.9363L19.0503 18.0924L19.0534 18.0893L19.0563 18.0861L18.8974 17.9363ZM19.393 17.9015L19.256 18.0723L19.2642 18.0792L19.2729 18.0852L19.393 17.9015ZM19.5468 18.0933L19.7476 18.0112L19.7466 18.0088L19.7457 18.0063L19.5468 18.0933ZM21.5551 23.2037L21.3542 23.2858L21.5551 23.7968L21.7558 23.2858L21.5551 23.2037ZM23.5633 18.0933L23.3644 18.0063L23.3634 18.0088L23.3624 18.0112L23.5633 18.0933ZM23.7086 17.9015L23.8358 18.08L23.8371 18.0791L23.8384 18.0781L23.7086 17.9015ZM24.2128 17.9363L24.0538 18.0861L24.0567 18.0893L24.0598 18.0924L24.2128 17.9363ZM24.2897 18.3724L24.4897 18.4565L24.491 18.4533L24.4922 18.4499L24.2897 18.3724ZM22.1789 23.5961L22.3757 23.6879L22.3774 23.6841L22.3789 23.6802L22.1789 23.5961ZM21.4611 23.7765C21.3876 23.7765 21.3309 23.7565 21.2823 23.7197C21.2311 23.6809 21.1772 23.6145 21.128 23.5044L20.7344 23.6879C20.8049 23.8453 20.8991 23.9794 21.0245 24.0743C21.1524 24.1713 21.3009 24.2181 21.4611 24.2181V23.7765ZM21.1312 23.512L19.0205 18.2883L18.6204 18.4565L20.7312 23.6802L21.1312 23.512ZM19.023 18.2949C19.0155 18.2745 19.0112 18.2514 19.0112 18.2241H18.5785C18.5785 18.3015 18.5911 18.3774 18.6178 18.4499L19.023 18.2949ZM19.0112 18.2241C19.0112 18.1459 19.0317 18.1114 19.0503 18.0924L18.7444 17.7803C18.6263 17.9008 18.5785 18.0582 18.5785 18.2241H19.0112ZM19.0563 18.0861C19.0761 18.0643 19.1078 18.0438 19.1794 18.0438V17.6022C19.0116 17.6022 18.8553 17.6573 18.7384 17.7865L19.0563 18.0861ZM19.1794 18.0438C19.2084 18.0438 19.2313 18.0517 19.256 18.0723L19.53 17.7306C19.4294 17.6466 19.3098 17.6022 19.1794 17.6022V18.0438ZM19.2729 18.0852C19.3044 18.1066 19.3293 18.1359 19.3479 18.1803L19.7457 18.0063C19.6959 17.8879 19.6183 17.7894 19.513 17.7178L19.2729 18.0852ZM19.346 18.1755L21.3542 23.2858L21.7558 23.1216L19.7476 18.0112L19.346 18.1755ZM21.7558 23.2858L23.7641 18.1755L23.3624 18.0112L21.3542 23.1216L21.7558 23.2858ZM23.7621 18.1803C23.7829 18.131 23.8083 18.1004 23.8358 18.08L23.5813 17.723C23.4835 17.7955 23.4121 17.8929 23.3644 18.0063L23.7621 18.1803ZM23.8384 18.0781C23.8721 18.0523 23.9012 18.0438 23.9308 18.0438V17.6022C23.8007 17.6022 23.6818 17.646 23.5788 17.7248L23.8384 18.0781ZM23.9308 18.0438C24.0023 18.0438 24.034 18.0643 24.0538 18.0861L24.3717 17.7865C24.2547 17.6573 24.0984 17.6022 23.9308 17.6022V18.0438ZM24.0598 18.0924C24.0784 18.1114 24.099 18.1459 24.099 18.2241H24.5317C24.5317 18.0582 24.4839 17.9008 24.3657 17.7803L24.0598 18.0924ZM24.099 18.2241C24.099 18.2514 24.0945 18.2745 24.0871 18.2949L24.4922 18.4499C24.5189 18.3774 24.5317 18.3015 24.5317 18.2241H24.099ZM24.0897 18.2883L21.9789 23.512L22.3789 23.6802L24.4897 18.4565L24.0897 18.2883ZM21.982 23.5044C21.9329 23.6145 21.879 23.6809 21.8278 23.7197C21.7792 23.7565 21.7225 23.7765 21.6491 23.7765V24.2181C21.8092 24.2181 21.9576 24.1713 22.0856 24.0743C22.2109 23.9794 22.3052 23.8453 22.3757 23.6879L21.982 23.5044ZM21.6491 23.7765H21.4611V24.2181H21.6491V23.7765Z" fill="white"/>
<path d="M7.70198 23.971L7.70058 23.9701C7.21477 23.694 6.83054 23.3011 6.54951 22.7962L6.54875 22.7948L6.54799 22.7933C6.27139 22.279 6.13672 21.6861 6.13672 21.0215C6.13672 20.3569 6.27139 19.7663 6.54853 19.2573L6.54897 19.2564C6.83 18.7452 7.21488 18.3512 7.70242 18.0805L7.70244 18.0805C8.19289 17.8054 8.74179 17.6699 9.34405 17.6699C9.74759 17.6699 10.1137 17.7183 10.4397 17.8186C10.7638 17.9166 11.0832 18.0569 11.3978 18.2385C11.4894 18.2899 11.5671 18.3615 11.6207 18.4559C11.6743 18.5505 11.6968 18.6556 11.6968 18.7628C11.6968 18.9102 11.6418 19.0407 11.5459 19.1474L11.5428 19.1509L11.5394 19.1543C11.4297 19.2663 11.2888 19.3149 11.1386 19.3149C11.0521 19.3149 10.9671 19.2971 10.888 19.2568L10.8863 19.2559L10.8845 19.2549C10.6452 19.1273 10.4139 19.0315 10.1904 18.9663C9.9747 18.9034 9.71909 18.8702 9.42096 18.8702C8.96144 18.8702 8.58241 18.9681 8.27465 19.1534L8.27379 19.1541C7.96859 19.3357 7.73892 19.5854 7.58122 19.9067L7.58126 19.9067C7.4269 20.2269 7.34707 20.5968 7.34707 21.0215C7.34707 21.4446 7.42635 21.8169 7.58022 22.1429C7.73759 22.4588 7.9675 22.7096 8.27412 22.8978C8.58199 23.0776 8.96123 23.1727 9.42096 23.1727C9.71909 23.1727 9.9747 23.1395 10.1904 23.0766C10.4139 23.0115 10.6452 22.9156 10.8845 22.788L10.8863 22.787L10.888 22.7861C10.9671 22.7459 11.0521 22.728 11.1386 22.728C11.2888 22.728 11.4297 22.7767 11.5394 22.8886C11.6439 22.9952 11.6968 23.1305 11.6968 23.2801C11.6968 23.3873 11.6743 23.4924 11.6207 23.587C11.5671 23.6814 11.4894 23.7531 11.3977 23.8045C11.0832 23.986 10.7638 24.1264 10.4396 24.2244C10.1136 24.3246 9.74758 24.373 9.34405 24.373C8.74229 24.373 8.19374 24.2406 7.70339 23.9717L7.70198 23.971Z" fill="white"/>
</g>
</g>
<defs>
<filter id="filter0_f_3364_69808" x="-26.5488" y="-22.5527" width="97.2549" height="87.2734" filterUnits="userSpaceOnUse" color-interpolation-filters="sRGB">
<feFlood flood-opacity="0" result="BackgroundImageFix"/>
<feBlend mode="normal" in="SourceGraphic" in2="BackgroundImageFix" result="shape"/>
<feGaussianBlur stdDeviation="19.5" result="effect1_foregroundBlur_3364_69808"/>
</filter>
<filter id="filter1_d_3364_69808" x="-3.62598" y="-24" width="61.0332" height="61.2598" filterUnits="userSpaceOnUse" color-interpolation-filters="sRGB">
<feFlood flood-opacity="0" result="BackgroundImageFix"/>
<feColorMatrix in="SourceAlpha" type="matrix" values="0 0 0 0 0 0 0 0 0 0 0 0 0 0 0 0 0 0 127 0" result="hardAlpha"/>
<feOffset dx="2" dy="1"/>
<feGaussianBlur stdDeviation="12.5"/>
<feColorMatrix type="matrix" values="0 0 0 0 0 0 0 0 0 0 0 0 0 0 0 0 0 0 0.33 0"/>
<feBlend mode="normal" in2="BackgroundImageFix" result="effect1_dropShadow_3364_69808"/>
<feBlend mode="normal" in="SourceGraphic" in2="effect1_dropShadow_3364_69808" result="shape"/>
</filter>
<linearGradient id="paint0_linear_3364_69808" x1="15.6959" y1="0" x2="15.6959" y2="34" gradientUnits="userSpaceOnUse">
<stop stop-color="#FF7979"/>
<stop offset="1" stop-color="#E85555"/>
</linearGradient>
<linearGradient id="paint1_linear_3364_69808" x1="15.6959" y1="0" x2="15.6959" y2="34" gradientUnits="userSpaceOnUse">
<stop stop-color="#FF6AC3"/>
<stop offset="1" stop-color="#DD3C9C"/>
</linearGradient>
<linearGradient id="paint2_linear_3364_69808" x1="24.8909" y1="0" x2="24.8909" y2="11.2597" gradientUnits="userSpaceOnUse">
<stop stop-color="#F430A6"/>
<stop offset="1" stop-color="#BF0B77"/>
</linearGradient>
<clipPath id="clip0_3364_69808">
<rect width="29.4231" height="34" fill="white" transform="translate(0.984375)"/>
</clipPath>
</defs>
</svg>
