<svg width="31" height="35" viewBox="0 0 31 35" fill="none" xmlns="http://www.w3.org/2000/svg">
<mask id="mask0_3364_69755" style="mask-type:alpha" maskUnits="userSpaceOnUse" x="0" y="0" width="31" height="35">
<path d="M27.9682 34.1758H2.63487C1.28485 34.1758 0.19043 33.0884 0.19043 31.7472V2.60435C0.19043 1.26309 1.28485 0.175781 2.63487 0.175781H19.0793L30.4127 11.4355V31.7472C30.4127 33.0884 29.3182 34.1758 27.9682 34.1758Z" fill="url(#paint0_linear_3364_69755)"/>
</mask>
<g mask="url(#mask0_3364_69755)">
<path d="M27.9682 34.1758H2.63487C1.28485 34.1758 0.19043 33.0884 0.19043 31.7472V2.60435C0.19043 1.26309 1.28485 0.175781 2.63487 0.175781H19.0793L30.4127 11.4355V31.7472C30.4127 33.0884 29.3182 34.1758 27.9682 34.1758Z" fill="url(#paint1_linear_3364_69755)"/>
<g opacity="0.27" filter="url(#filter0_f_3364_69755)">
<g style="mix-blend-mode:darken" opacity="0.27">
<path d="M25.3012 16.623H5.52344V25.8958H25.3012V16.623Z" fill="#0072A2"/>
</g>
</g>
<path opacity="0.11" d="M8.30176 14.6367H22.3018" stroke="white" stroke-width="12"/>
<path opacity="0.11" d="M8.30176 17.9492H22.3018" stroke="white" stroke-width="12"/>
<path opacity="0.11" d="M8.30176 21.2598H22.3018" stroke="white" stroke-width="12"/>
<path opacity="0.11" d="M8.30176 24.5723H22.3018" stroke="white" stroke-width="12"/>
<path opacity="0.11" d="M8.30176 27.8828H22.3018" stroke="white" stroke-width="12"/>
<path d="M6.02391 24.1294C5.91272 24.1294 5.81909 24.0916 5.74302 24.016C5.66694 23.9404 5.62891 23.8475 5.62891 23.737V18.4434C5.62891 18.3329 5.66694 18.24 5.74302 18.1644C5.81909 18.083 5.91272 18.0423 6.02391 18.0423H7.78824C8.45535 18.0423 9.02005 18.1905 9.48235 18.487C9.9505 18.7777 10.3016 19.1557 10.5357 19.6207C10.7698 20.0858 10.8868 20.5742 10.8868 21.0858C10.8868 21.5975 10.7698 22.0859 10.5357 22.5509C10.3016 23.016 9.9505 23.3968 9.48235 23.6934C9.02005 23.984 8.45535 24.1294 7.78824 24.1294H6.02391ZM7.69168 23.3881C8.17154 23.3881 8.59287 23.2922 8.95568 23.1003C9.3185 22.9026 9.59938 22.6323 9.79835 22.2893C9.99732 21.9405 10.0968 21.5393 10.0968 21.0858C10.0968 20.6324 9.99732 20.2341 9.79835 19.8911C9.59938 19.5423 9.3185 19.2719 8.95568 19.0801C8.59287 18.8824 8.17154 18.7836 7.69168 18.7836H6.42768V23.3881H7.69168ZM15.5476 24.2166C14.9332 24.2166 14.3948 24.0829 13.9325 23.8154C13.4702 23.548 13.1132 23.1788 12.8616 22.7079C12.61 22.237 12.4783 21.6963 12.4666 21.0858C12.4783 20.4754 12.61 19.9347 12.8616 19.4638C13.1132 18.9929 13.4702 18.6237 13.9325 18.3562C14.3948 18.0888 14.9332 17.9551 15.5476 17.9551C16.1621 17.9551 16.6975 18.0888 17.154 18.3562C17.6162 18.6237 17.9732 18.9957 18.2249 19.4725C18.4823 19.9434 18.6169 20.4812 18.6286 21.0858C18.6169 21.6904 18.4823 22.2311 18.2249 22.7079C17.9732 23.1788 17.6162 23.548 17.154 23.8154C16.6975 24.0829 16.1621 24.2166 15.5476 24.2166ZM15.5476 23.4753C16.0158 23.4753 16.4224 23.3707 16.7678 23.1614C17.113 22.9521 17.3763 22.6672 17.5578 22.3067C17.7391 21.9463 17.8299 21.5393 17.8299 21.0858C17.8299 20.6324 17.7391 20.2254 17.5578 19.8649C17.3763 19.5045 17.113 19.2196 16.7678 19.0103C16.4224 18.801 16.0158 18.6963 15.5476 18.6963C15.0736 18.6963 14.664 18.801 14.3188 19.0103C13.9793 19.2196 13.7189 19.5045 13.5375 19.8649C13.3561 20.2254 13.2654 20.6324 13.2654 21.0858C13.2654 21.5393 13.3561 21.9463 13.5375 22.3067C13.7189 22.6672 13.9793 22.9521 14.3188 23.1614C14.664 23.3707 15.0736 23.4753 15.5476 23.4753ZM23.2766 24.2166C22.6914 24.2166 22.1648 24.0916 21.6966 23.8416C21.2343 23.5858 20.8686 23.2224 20.5994 22.7515C20.3361 22.2747 20.2044 21.7196 20.2044 21.0858C20.2044 20.4521 20.3361 19.8998 20.5994 19.4289C20.8686 18.9521 21.2343 18.5888 21.6966 18.3388C22.1648 18.083 22.6914 17.9551 23.2766 17.9551C23.6745 17.9551 24.0286 18.0016 24.3388 18.0946C24.6548 18.1877 24.9679 18.3214 25.278 18.4958C25.4068 18.5655 25.4711 18.676 25.4711 18.8272C25.4711 18.9144 25.4389 18.9929 25.3745 19.0626C25.3102 19.1265 25.2253 19.1585 25.12 19.1585C25.0614 19.1585 25.0088 19.147 24.962 19.1237C24.7045 18.99 24.4529 18.8882 24.2071 18.8184C23.9613 18.7487 23.6775 18.7138 23.3556 18.7138C22.8524 18.7138 22.4223 18.8184 22.0653 19.0277C21.7142 19.2312 21.448 19.5132 21.2665 19.8737C21.091 20.2283 21.0032 20.6324 21.0032 21.0858C21.0032 21.5393 21.091 21.9463 21.2665 22.3067C21.448 22.6614 21.7142 22.9434 22.0653 23.1527C22.4223 23.3561 22.8524 23.4579 23.3556 23.4579C23.6775 23.4579 23.9613 23.423 24.2071 23.3532C24.4529 23.2835 24.7045 23.1817 24.962 23.048C25.0088 23.0247 25.0614 23.0131 25.12 23.0131C25.2253 23.0131 25.3102 23.0451 25.3745 23.1091C25.4389 23.173 25.4711 23.2515 25.4711 23.3445C25.4711 23.4956 25.4068 23.6061 25.278 23.6759C24.9679 23.8503 24.6548 23.984 24.3388 24.0771C24.0286 24.1701 23.6745 24.2166 23.2766 24.2166Z" fill="white"/>
<path d="M5.74356 24.0161L5.90069 23.86L5.74356 24.0161ZM5.74356 18.1645L5.90069 18.3205L5.9036 18.3177L5.9064 18.3147L5.74356 18.1645ZM9.48289 18.4871L9.36237 18.6726L9.36374 18.6735L9.36511 18.6743L9.48289 18.4871ZM10.5362 19.6208L10.3375 19.7195L10.5362 19.6208ZM10.5362 22.551L10.3375 22.4523L10.5362 22.551ZM9.48289 23.6934L9.60174 23.88L9.60235 23.8795L9.48289 23.6934ZM8.95623 23.1004L9.06064 23.2953L9.06186 23.2947L9.06308 23.294L8.95623 23.1004ZM9.79889 22.2894L9.99144 22.3997L9.99184 22.3989L9.99224 22.3982L9.79889 22.2894ZM9.79889 19.8912L9.60556 20L9.60595 20.0007L9.60636 20.0014L9.79889 19.8912ZM8.95623 19.0801L8.84937 19.2738L8.85059 19.2744L8.85181 19.275L8.95623 19.0801ZM6.42823 18.7836V18.5628H6.206V18.7836H6.42823ZM6.42823 23.3882H6.206V23.609H6.42823V23.3882ZM6.02445 23.9087C5.96999 23.9087 5.93356 23.8927 5.90069 23.86L5.58643 24.1722C5.7057 24.2907 5.85653 24.3502 6.02445 24.3502V23.9087ZM5.90069 23.86C5.86783 23.8273 5.85167 23.7911 5.85167 23.737H5.40723C5.40723 23.9038 5.46715 24.0537 5.58643 24.1722L5.90069 23.86ZM5.85167 23.737V18.4435H5.40723V23.737H5.85167ZM5.85167 18.4435C5.85167 18.3894 5.86783 18.3532 5.90069 18.3205L5.58643 18.0084C5.46715 18.1268 5.40723 18.2767 5.40723 18.4435H5.85167ZM5.9064 18.3147C5.94069 18.278 5.97545 18.2631 6.02445 18.2631V17.8216C5.85108 17.8216 5.69857 17.8881 5.58072 18.0142L5.9064 18.3147ZM6.02445 18.2631H7.78878V17.8216H6.02445V18.2631ZM7.78878 18.2631C8.42229 18.2631 8.94298 18.4037 9.36237 18.6726L9.60342 18.3017C9.09822 17.9776 8.48949 17.8216 7.78878 17.8216V18.2631ZM9.36511 18.6743C9.80057 18.9447 10.1227 19.2929 10.3375 19.7195L10.735 19.5221C10.4816 19.0186 10.1015 18.6109 9.60067 18.2999L9.36511 18.6743ZM10.3375 19.7195C10.5564 20.1546 10.6651 20.6091 10.6651 21.0859H11.1096C11.1096 20.5395 10.9842 20.0173 10.735 19.5221L10.3375 19.7195ZM10.6651 21.0859C10.6651 21.5627 10.5564 22.0173 10.3375 22.4523L10.735 22.6497C10.9842 22.1545 11.1096 21.6323 11.1096 21.0859H10.6651ZM10.3375 22.4523C10.1225 22.8794 9.79981 23.2309 9.36344 23.5073L9.60235 23.8795C10.1023 23.5629 10.4818 23.1527 10.735 22.6497L10.3375 22.4523ZM9.36405 23.5069C8.9444 23.7707 8.42308 23.9087 7.78878 23.9087V24.3502C8.4887 24.3502 9.09679 24.1975 9.60174 23.88L9.36405 23.5069ZM7.78878 23.9087H6.02445V24.3502H7.78878V23.9087ZM7.69223 23.609C8.20237 23.609 8.66068 23.5068 9.06064 23.2953L8.85181 22.9056C8.52614 23.0778 8.14178 23.1674 7.69223 23.1674V23.609ZM9.06308 23.294C9.46017 23.0777 9.77134 22.7791 9.99144 22.3997L9.60636 22.1791C9.42853 22.4858 9.17792 22.7278 8.84937 22.9068L9.06308 23.294ZM9.99224 22.3982C10.2125 22.0121 10.3196 21.5725 10.3196 21.0859H9.87511C9.87511 21.5063 9.78321 21.869 9.60556 22.1805L9.99224 22.3982ZM10.3196 21.0859C10.3196 20.5994 10.2125 20.1621 9.99144 19.7809L9.60636 20.0014C9.78319 20.3062 9.87511 20.6654 9.87511 21.0859H10.3196ZM9.99224 19.7823C9.77205 19.3963 9.45999 19.0965 9.06064 18.8853L8.85181 19.275C9.17809 19.4475 9.4278 19.6884 9.60556 20L9.99224 19.7823ZM9.06308 18.8865C8.66263 18.6684 8.20343 18.5628 7.69223 18.5628V19.0044C8.14074 19.0044 8.5242 19.0966 8.84937 19.2738L9.06308 18.8865ZM7.69223 18.5628H6.42823V19.0044H7.69223V18.5628ZM6.206 18.7836V23.3882H6.65045V18.7836H6.206ZM6.42823 23.609H7.69223V23.1674H6.42823V23.609ZM13.9331 23.8155L14.0448 23.6248L13.9331 23.8155ZM12.8622 22.708L12.6658 22.8115L12.8622 22.708ZM12.4672 21.0859L12.245 21.0817L12.2448 21.0859L12.245 21.0901L12.4672 21.0859ZM12.8622 19.4638L13.0584 19.5674L12.8622 19.4638ZM13.9331 18.3563L13.8212 18.1656L13.9331 18.3563ZM17.1545 18.3563L17.0416 18.5465L17.0426 18.5471L17.1545 18.3563ZM18.2254 19.4726L18.0285 19.5751L18.0293 19.5766L18.0301 19.578L18.2254 19.4726ZM18.6292 21.0859L18.8513 21.0901L18.8514 21.0859L18.8513 21.0817L18.6292 21.0859ZM18.2254 22.708L18.0295 22.6036L18.0291 22.6044L18.2254 22.708ZM17.1545 23.8155L17.0426 23.6248L17.0416 23.6253L17.1545 23.8155ZM16.7683 23.1615L16.6525 22.973L16.7683 23.1615ZM17.5583 22.3068L17.757 22.4055L17.5583 22.3068ZM17.5583 19.865L17.757 19.7663L17.5583 19.865ZM16.7683 19.0104L16.6525 19.1988L16.7683 19.0104ZM14.3193 19.0104L14.2035 18.8219L14.2027 18.8224L14.2021 18.8228L14.3193 19.0104ZM13.5381 19.865L13.3393 19.7663L13.5381 19.865ZM13.5381 22.3068L13.3393 22.4055L13.5381 22.3068ZM14.3193 23.1615L14.2021 23.349L14.2027 23.3495L14.2035 23.3499L14.3193 23.1615ZM15.5482 23.9959C14.9671 23.9959 14.4684 23.8697 14.0448 23.6248L13.8212 24.0063C14.3222 24.2962 14.9003 24.4375 15.5482 24.4375V23.9959ZM14.0448 23.6248C13.6184 23.378 13.2907 23.0391 13.0584 22.6044L12.6658 22.8115C12.9368 23.3187 13.323 23.7182 13.8212 24.0063L14.0448 23.6248ZM13.0584 22.6044C12.8254 22.1683 12.7004 21.6626 12.6893 21.0817L12.245 21.0901C12.2572 21.7301 12.3956 22.3058 12.6658 22.8115L13.0584 22.6044ZM12.6893 21.0901C12.7004 20.5092 12.8254 20.0035 13.0584 19.5674L12.6658 19.3603C12.3956 19.866 12.2572 20.4417 12.245 21.0817L12.6893 21.0901ZM13.0584 19.5674C13.2907 19.1327 13.6184 18.7938 14.0448 18.5471L13.8212 18.1656C13.323 18.4537 12.9368 18.8532 12.6658 19.3603L13.0584 19.5674ZM14.0448 18.5471C14.4684 18.3021 14.9671 18.1759 15.5482 18.1759V17.7344C14.9003 17.7344 14.3222 17.8757 13.8212 18.1656L14.0448 18.5471ZM15.5482 18.1759C16.1293 18.1759 16.6245 18.3021 17.0416 18.5465L17.2674 18.1661C16.7716 17.8757 16.1958 17.7344 15.5482 17.7344V18.1759ZM17.0426 18.5471C17.4683 18.7933 17.7961 19.1347 18.0285 19.5751L18.4222 19.37C18.1514 18.857 17.7652 18.4541 17.2663 18.1656L17.0426 18.5471ZM18.0301 19.578C18.2685 20.014 18.3958 20.5163 18.407 21.0901L18.8513 21.0817C18.839 20.4462 18.6972 19.873 18.4206 19.3671L18.0301 19.578ZM18.407 21.0817C18.3958 21.6555 18.2685 22.1612 18.0295 22.6036L18.4212 22.8124C18.6972 22.3013 18.839 21.7256 18.8513 21.0901L18.407 21.0817ZM18.0291 22.6044C17.7968 23.0391 17.4691 23.378 17.0426 23.6248L17.2663 24.0063C17.7645 23.7182 18.1506 23.3187 18.4216 22.8115L18.0291 22.6044ZM17.0416 23.6253C16.6245 23.8697 16.1293 23.9959 15.5482 23.9959V24.4375C16.1958 24.4375 16.7716 24.2962 17.2674 24.0057L17.0416 23.6253ZM15.5482 23.6962C16.0506 23.6962 16.4986 23.5835 16.884 23.3499L16.6525 22.973C16.3473 23.158 15.982 23.2546 15.5482 23.2546V23.6962ZM16.884 23.3499C17.265 23.119 17.557 22.8029 17.757 22.4055L17.3595 22.2081C17.1966 22.5316 16.9621 22.7854 16.6525 22.973L16.884 23.3499ZM17.757 22.4055C17.9556 22.0108 18.0526 21.5693 18.0526 21.0859H17.6082C17.6082 21.5095 17.5236 21.8819 17.3595 22.2081L17.757 22.4055ZM18.0526 21.0859C18.0526 20.6025 17.9556 20.1611 17.757 19.7663L17.3595 19.9637C17.5236 20.2899 17.6082 20.6623 17.6082 21.0859H18.0526ZM17.757 19.7663C17.557 19.3689 17.265 19.0529 16.884 18.8219L16.6525 19.1988C16.9621 19.3865 17.1966 19.6403 17.3595 19.9637L17.757 19.7663ZM16.884 18.8219C16.4986 18.5883 16.0506 18.4756 15.5482 18.4756V18.9172C15.982 18.9172 16.3473 19.0138 16.6525 19.1988L16.884 18.8219ZM15.5482 18.4756C15.0404 18.4756 14.5892 18.588 14.2035 18.8219L14.435 19.1988C14.7397 19.0141 15.1078 18.9172 15.5482 18.9172V18.4756ZM14.2021 18.8228C13.8272 19.054 13.5387 19.3699 13.3393 19.7663L13.7367 19.9637C13.9001 19.6393 14.1325 19.3854 14.4364 19.1979L14.2021 18.8228ZM13.3393 19.7663C13.1406 20.1611 13.0437 20.6025 13.0437 21.0859H13.4882C13.4882 20.6623 13.5726 20.2899 13.7367 19.9637L13.3393 19.7663ZM13.0437 21.0859C13.0437 21.5693 13.1406 22.0108 13.3393 22.4055L13.7367 22.2081C13.5726 21.8819 13.4882 21.5095 13.4882 21.0859H13.0437ZM13.3393 22.4055C13.5387 22.8019 13.8272 23.1179 14.2021 23.349L14.4364 22.9739C14.1325 22.7865 13.9001 22.5326 13.7367 22.2081L13.3393 22.4055ZM14.2035 23.3499C14.5892 23.5838 15.0404 23.6962 15.5482 23.6962V23.2546C15.1078 23.2546 14.7397 23.1577 14.435 22.973L14.2035 23.3499ZM21.6972 23.8417L21.5891 24.0345L21.5905 24.0354L21.592 24.0362L21.6972 23.8417ZM20.6 22.7516L20.4052 22.8578L20.406 22.8592L20.4067 22.8606L20.6 22.7516ZM20.6 19.429L20.4062 19.3209L20.4057 19.3218L20.6 19.429ZM21.6972 18.3389L21.8034 18.5328L21.8043 18.5323L21.6972 18.3389ZM24.3393 18.0947L24.2751 18.3061L24.2762 18.3064L24.3393 18.0947ZM25.2785 18.4958L25.1691 18.688L25.1705 18.6888L25.1721 18.6897L25.2785 18.4958ZM25.3751 19.0627L25.5322 19.2188L25.5356 19.2154L25.5388 19.2118L25.3751 19.0627ZM24.9625 19.1237L24.8595 19.3193L24.8613 19.3203L24.8631 19.3212L24.9625 19.1237ZM24.2076 18.8185L24.2686 18.6062L24.2076 18.8185ZM22.0658 19.0278L22.1778 19.2186L22.1787 19.2179L22.0658 19.0278ZM21.2671 19.8737L21.0683 19.775L21.0676 19.7763L21.2671 19.8737ZM21.2671 22.3068L21.0671 22.403L21.068 22.405L21.069 22.4068L21.2671 22.3068ZM22.0658 23.1527L21.9515 23.3421L21.9534 23.3432L21.9553 23.3443L22.0658 23.1527ZM24.2076 23.3533L24.2686 23.5656L24.2076 23.3533ZM24.9625 23.0481L24.8631 22.8506L24.8613 22.8515L24.8595 22.8525L24.9625 23.0481ZM25.3751 23.1091L25.5322 22.953L25.3751 23.1091ZM25.2785 23.676L25.1721 23.4821L25.1705 23.483L25.1691 23.4838L25.2785 23.676ZM24.3393 24.0771L24.2762 23.8654L24.2751 23.8657L24.3393 24.0771ZM23.2772 23.9959C22.725 23.9959 22.235 23.8782 21.8024 23.6472L21.592 24.0362C22.0956 24.3051 22.6591 24.4375 23.2772 24.4375V23.9959ZM21.8053 23.6488C21.3796 23.4133 21.043 23.0794 20.7932 22.6425L20.4067 22.8606C20.6954 23.3656 21.0901 23.7584 21.5891 24.0345L21.8053 23.6488ZM20.7947 22.6454C20.5522 22.2061 20.4272 21.6886 20.4272 21.0859H19.9827C19.9827 21.7506 20.1211 22.3435 20.4052 22.8578L20.7947 22.6454ZM20.4272 21.0859C20.4272 20.4831 20.5522 19.969 20.7942 19.5362L20.4057 19.3218C20.1211 19.8308 19.9827 20.4214 19.9827 21.0859H20.4272ZM20.7937 19.5369C21.0434 19.0948 21.3796 18.762 21.8034 18.5328L21.591 18.1449C21.0902 18.4157 20.6948 18.8097 20.4062 19.3209L20.7937 19.5369ZM21.8043 18.5323C22.2365 18.2961 22.7257 18.1759 23.2772 18.1759V17.7344C22.6582 17.7344 22.0941 17.87 21.5901 18.1455L21.8043 18.5323ZM23.2772 18.1759C23.6581 18.1759 23.9898 18.2205 24.2751 18.3061L24.4035 17.8833C24.0684 17.7828 23.6921 17.7344 23.2772 17.7344V18.1759ZM24.2762 18.3064C24.5747 18.3943 24.8724 18.5211 25.1691 18.688L25.388 18.3037C25.0644 18.1217 24.7358 17.9811 24.4024 17.883L24.2762 18.3064ZM25.1721 18.6897C25.2058 18.708 25.222 18.7262 25.2311 18.7417C25.2403 18.7576 25.2494 18.7833 25.2494 18.8272H25.6938C25.6938 18.72 25.6707 18.615 25.6156 18.5204C25.5603 18.4254 25.4798 18.3534 25.385 18.302L25.1721 18.6897ZM25.2494 18.8272C25.2494 18.8543 25.2415 18.8807 25.2113 18.9136L25.5388 19.2118C25.6373 19.1052 25.6938 18.9746 25.6938 18.8272H25.2494ZM25.218 18.9066C25.2018 18.9226 25.177 18.9378 25.1205 18.9378V19.3794C25.2747 19.3794 25.4195 19.3307 25.5322 19.2188L25.218 18.9066ZM25.1205 18.9378C25.0924 18.9378 25.0744 18.9324 25.0618 18.9263L24.8631 19.3212C24.9443 19.3615 25.0316 19.3794 25.1205 19.3794V18.9378ZM25.0654 18.9281C24.7964 18.7884 24.5307 18.6806 24.2686 18.6062L24.1465 19.0308C24.3761 19.0959 24.6136 19.1917 24.8595 19.3193L25.0654 18.9281ZM24.2686 18.6062C23.9986 18.5296 23.6936 18.4931 23.3562 18.4931V18.9346C23.6624 18.9346 23.925 18.9679 24.1465 19.0308L24.2686 18.6062ZM23.3562 18.4931C22.8217 18.4931 22.3507 18.6045 21.9528 18.8377L22.1787 19.2179C22.4948 19.0326 22.8842 18.9346 23.3562 18.9346V18.4931ZM21.9538 18.8371C21.5655 19.0621 21.2691 19.3761 21.0683 19.775L21.4658 19.9724C21.6278 19.6505 21.864 19.4004 22.1778 19.2186L21.9538 18.8371ZM21.0676 19.7763C20.8751 20.1655 20.7815 20.6036 20.7815 21.0859H21.226C21.226 20.6612 21.308 20.2913 21.4665 19.9712L21.0676 19.7763ZM20.7815 21.0859C20.7815 21.5683 20.8751 22.0088 21.0671 22.403L21.4671 22.2107C21.308 21.8839 21.226 21.5105 21.226 21.0859H20.7815ZM21.069 22.4068C21.2697 22.7994 21.5654 23.1119 21.9515 23.3421L22.1802 22.9634C21.8641 22.775 21.6272 22.5236 21.4652 22.2068L21.069 22.4068ZM21.9553 23.3443C22.3526 23.5708 22.8227 23.6787 23.3562 23.6787V23.2372C22.8831 23.2372 22.493 23.1417 22.1764 22.9612L21.9553 23.3443ZM23.3562 23.6787C23.6936 23.6787 23.9986 23.6422 24.2686 23.5656L24.1465 23.141C23.925 23.204 23.6624 23.2372 23.3562 23.2372V23.6787ZM24.2686 23.5656C24.5307 23.4912 24.7964 23.3835 25.0654 23.2437L24.8595 22.8525C24.6136 22.9801 24.3761 23.0759 24.1465 23.141L24.2686 23.5656ZM25.0618 23.2456C25.0744 23.2394 25.0924 23.234 25.1205 23.234V22.7924C25.0316 22.7924 24.9443 22.8103 24.8631 22.8506L25.0618 23.2456ZM25.1205 23.234C25.177 23.234 25.2018 23.2492 25.218 23.2652L25.5322 22.953C25.4195 22.8411 25.2747 22.7924 25.1205 22.7924V23.234ZM25.218 23.2652C25.2393 23.2865 25.2494 23.3083 25.2494 23.3446H25.6938C25.6938 23.1949 25.6395 23.0597 25.5322 22.953L25.218 23.2652ZM25.2494 23.3446C25.2494 23.3885 25.2403 23.4143 25.2311 23.4301C25.222 23.4456 25.2058 23.4638 25.1721 23.4821L25.385 23.8698C25.4798 23.8184 25.5603 23.7464 25.6156 23.6515C25.6707 23.5569 25.6938 23.4518 25.6938 23.3446H25.2494ZM25.1691 23.4838C24.8724 23.6507 24.5747 23.7775 24.2762 23.8654L24.4024 24.2889C24.7358 24.1907 25.0644 24.0501 25.388 23.8682L25.1691 23.4838ZM24.2751 23.8657C23.9898 23.9513 23.6581 23.9959 23.2772 23.9959V24.4375C23.6921 24.4375 24.0684 24.389 24.4035 24.2885L24.2751 23.8657Z" fill="white"/>
<mask id="mask1_3364_69755" style="mask-type:alpha" maskUnits="userSpaceOnUse" x="0" y="0" width="31" height="35">
<path d="M27.9682 34.1758H2.63487C1.28485 34.1758 0.19043 33.0884 0.19043 31.7472V2.60435C0.19043 1.26309 1.28485 0.175781 2.63487 0.175781H19.0793L30.4127 11.4355V31.7472C30.4127 33.0884 29.3182 34.1758 27.9682 34.1758Z" fill="url(#paint2_linear_3364_69755)"/>
</mask>
<g mask="url(#mask1_3364_69755)">
<path opacity="0.05" d="M-1.42057 22.4743C12.2945 22.4743 23.4128 11.8731 23.4128 -1.20424C23.4128 -14.2816 12.2945 -24.8828 -1.42057 -24.8828C-15.1356 -24.8828 -26.2539 -14.2816 -26.2539 -1.20424C-26.2539 11.8731 -15.1356 22.4743 -1.42057 22.4743Z" fill="url(#paint3_linear_3364_69755)"/>
<path opacity="0.07" d="M-1.42014 13.644C7.20164 13.644 14.191 6.99662 14.191 -1.20338C14.191 -9.40337 7.20164 -16.0508 -1.42014 -16.0508C-10.0419 -16.0508 -17.0312 -9.40337 -17.0312 -1.20338C-17.0312 6.99662 -10.0419 13.644 -1.42014 13.644Z" fill="url(#paint4_linear_3364_69755)"/>
<g filter="url(#filter1_d_3364_69755)">
<path d="M30.4124 11.4355H21.5235C20.1735 11.4355 19.0791 10.3482 19.0791 9.00695V0.175781L30.4124 11.4355Z" fill="url(#paint5_linear_3364_69755)"/>
</g>
</g>
</g>
<defs>
<filter id="filter0_f_3364_69755" x="-33.4766" y="-22.377" width="97.7773" height="87.2734" filterUnits="userSpaceOnUse" color-interpolation-filters="sRGB">
<feFlood flood-opacity="0" result="BackgroundImageFix"/>
<feBlend mode="normal" in="SourceGraphic" in2="BackgroundImageFix" result="shape"/>
<feGaussianBlur stdDeviation="19.5" result="effect1_foregroundBlur_3364_69755"/>
</filter>
<filter id="filter1_d_3364_69755" x="-3.9209" y="-23.8242" width="61.333" height="61.2598" filterUnits="userSpaceOnUse" color-interpolation-filters="sRGB">
<feFlood flood-opacity="0" result="BackgroundImageFix"/>
<feColorMatrix in="SourceAlpha" type="matrix" values="0 0 0 0 0 0 0 0 0 0 0 0 0 0 0 0 0 0 127 0" result="hardAlpha"/>
<feOffset dx="2" dy="1"/>
<feGaussianBlur stdDeviation="12.5"/>
<feColorMatrix type="matrix" values="0 0 0 0 0 0 0 0 0 0 0 0 0 0 0 0 0 0 0.33 0"/>
<feBlend mode="normal" in2="BackgroundImageFix" result="effect1_dropShadow_3364_69755"/>
<feBlend mode="normal" in="SourceGraphic" in2="effect1_dropShadow_3364_69755" result="shape"/>
</filter>
<linearGradient id="paint0_linear_3364_69755" x1="15.3015" y1="0.175781" x2="15.3015" y2="34.1758" gradientUnits="userSpaceOnUse">
<stop stop-color="#FF7979"/>
<stop offset="1" stop-color="#E85555"/>
</linearGradient>
<linearGradient id="paint1_linear_3364_69755" x1="15.3015" y1="0.175781" x2="15.3015" y2="34.1758" gradientUnits="userSpaceOnUse">
<stop stop-color="#6ABDF8"/>
<stop offset="1" stop-color="#008BD6"/>
</linearGradient>
<linearGradient id="paint2_linear_3364_69755" x1="15.3015" y1="0.175781" x2="15.3015" y2="34.1758" gradientUnits="userSpaceOnUse">
<stop stop-color="#6ABDF8"/>
<stop offset="1" stop-color="#008BD6"/>
</linearGradient>
<linearGradient id="paint3_linear_3364_69755" x1="0.382506" y1="-0.390542" x2="7.82802" y2="19.4991" gradientUnits="userSpaceOnUse">
<stop stop-color="white" stop-opacity="0"/>
<stop offset="1" stop-color="white"/>
</linearGradient>
<linearGradient id="paint4_linear_3364_69755" x1="-0.286661" y1="-0.693159" x2="4.37302" y2="11.7862" gradientUnits="userSpaceOnUse">
<stop stop-color="white" stop-opacity="0"/>
<stop offset="1" stop-color="white"/>
</linearGradient>
<linearGradient id="paint5_linear_3364_69755" x1="24.7458" y1="0.175781" x2="24.7458" y2="11.4355" gradientUnits="userSpaceOnUse">
<stop stop-color="#009FE3"/>
<stop offset="1" stop-color="#0087C1"/>
</linearGradient>
</defs>
</svg>
