<svg width="64" height="53" viewBox="0 0 64 53" fill="none" xmlns="http://www.w3.org/2000/svg">
<path d="M54.6667 0.523447H9.33339C5.66039 0.517299 2.67788 3.5631 2.67188 7.3265C2.67138 7.63272 2.69101 7.93855 2.73076 8.24195C2.82526 8.99015 3.49389 9.51819 4.22426 9.42137C4.40214 9.3978 4.57351 9.33774 4.72814 9.24463C5.31639 8.89397 5.98626 8.71275 6.66676 8.72005H16.1602C17.8734 8.72491 19.3955 9.84131 19.9522 11.5014L20.1788 12.25C21.0963 15.0326 23.6402 16.9086 26.5068 16.9165H57.3335C58.0327 16.9172 58.7195 17.1056 59.3255 17.463C59.5302 17.5853 59.7631 17.6493 60.0001 17.6488C60.7365 17.6488 61.3335 17.0372 61.3335 16.2827V7.3539C61.3335 3.58155 58.3487 0.523447 54.6667 0.523447Z" fill="#344563"/>
<path d="M60.6747 15.1066C59.6605 14.501 58.5073 14.1823 57.3333 14.1831H26.5067C24.7934 14.1782 23.2713 13.0618 22.7147 11.4018L22.488 10.6532C21.5705 7.87057 19.0266 5.99458 16.16 5.98664H6.66663C5.52101 5.97524 4.39363 6.28005 3.40263 6.86918C1.301 8.07421 -0.000624776 10.3494 2.24978e-07 12.8171V45.6035C2.24978e-07 49.3758 2.98475 52.4339 6.66663 52.4339H57.3333C61.0152 52.4339 64 49.3758 64 45.6035V21.0137C64.0082 18.5755 62.7387 16.3204 60.6747 15.1066Z" fill="#30A060"/>
</svg>
