<svg width="30" height="35" viewBox="0 0 30 35" fill="none" xmlns="http://www.w3.org/2000/svg">
<mask id="mask0_3364_69786" style="mask-type:alpha" maskUnits="userSpaceOnUse" x="0" y="0" width="30" height="35">
<path d="M27.5735 34.4922H2.42647C1.08637 34.4922 0 33.4049 0 32.0636V2.92076C0 1.5795 1.08637 0.492188 2.42647 0.492188H18.75L30 11.7519V32.0636C30 33.4049 28.9136 34.4922 27.5735 34.4922Z" fill="url(#paint0_linear_3364_69786)"/>
</mask>
<g mask="url(#mask0_3364_69786)">
<path d="M27.5735 34.4922H2.42647C1.08637 34.4922 0 33.4049 0 32.0636V2.92076C0 1.5795 1.08637 0.492188 2.42647 0.492188H18.75L30 11.7519V32.0636C30 33.4049 28.9136 34.4922 27.5735 34.4922Z" fill="url(#paint1_linear_3364_69786)"/>
<g opacity="0.51" filter="url(#filter0_f_3364_69786)">
<g style="mix-blend-mode:darken" opacity="0.51">
<path d="M24.9263 16.9395H5.29395V26.2122H24.9263V16.9395Z" fill="#E33CC8"/>
</g>
</g>
<g opacity="0.12">
<path fill-rule="evenodd" clip-rule="evenodd" d="M8.71347 14.2916C8.22615 14.2916 7.83111 14.687 7.83111 15.1747V27.5384C7.83111 28.0261 8.22615 28.4215 8.71347 28.4215H21.0664C21.5537 28.4215 21.9488 28.0261 21.9488 27.5384V15.1747C21.9488 14.687 21.5537 14.2916 21.0664 14.2916H8.71347ZM6.06641 15.1747C6.06641 13.7115 7.25154 12.5254 8.71347 12.5254H21.0664C22.5284 12.5254 23.7135 13.7115 23.7135 15.1747V27.5384C23.7135 29.0016 22.5284 30.1877 21.0664 30.1877H8.71347C7.25154 30.1877 6.06641 29.0016 6.06641 27.5384V15.1747Z" fill="white"/>
<path fill-rule="evenodd" clip-rule="evenodd" d="M17.7954 18.9659C18.14 18.621 18.6987 18.621 19.0433 18.9659L23.455 23.3814C23.7996 23.7263 23.7996 24.2855 23.455 24.6304C23.1105 24.9752 22.5517 24.9752 22.2072 24.6304L18.4193 20.8393L9.33739 29.9291C8.99281 30.2739 8.43412 30.2739 8.08954 29.9291C7.74497 29.5842 7.74497 29.025 8.08954 28.6801L17.7954 18.9659Z" fill="white"/>
<path fill-rule="evenodd" clip-rule="evenodd" d="M11.8017 17.8241C11.5581 17.8241 11.3605 18.0218 11.3605 18.2657C11.3605 18.5095 11.5581 18.7072 11.8017 18.7072C12.0453 18.7072 12.2429 18.5095 12.2429 18.2657C12.2429 18.0218 12.0453 17.8241 11.8017 17.8241ZM9.59582 18.2657C9.59582 17.0463 10.5834 16.0579 11.8017 16.0579C13.02 16.0579 14.0076 17.0463 14.0076 18.2657C14.0076 19.485 13.02 20.4734 11.8017 20.4734C10.5834 20.4734 9.59582 19.485 9.59582 18.2657Z" fill="white"/>
</g>
<mask id="mask1_3364_69786" style="mask-type:alpha" maskUnits="userSpaceOnUse" x="0" y="0" width="30" height="35">
<path d="M27.5735 34.4922H2.42647C1.08637 34.4922 0 33.4049 0 32.0636V2.92076C0 1.5795 1.08637 0.492188 2.42647 0.492188H18.75L30 11.7519V32.0636C30 33.4049 28.9136 34.4922 27.5735 34.4922Z" fill="url(#paint2_linear_3364_69786)"/>
</mask>
<g mask="url(#mask1_3364_69786)">
<path opacity="0.08" d="M-1.59926 21.9079C12.015 21.9079 23.0515 11.3067 23.0515 -1.77065C23.0515 -14.848 12.015 -25.4492 -1.59926 -25.4492C-15.2135 -25.4492 -26.25 -14.848 -26.25 -1.77065C-26.25 11.3067 -15.2135 21.9079 -1.59926 21.9079Z" fill="url(#paint3_linear_3364_69786)"/>
<path opacity="0.09" d="M-1.59938 13.0776C6.959 13.0776 13.8969 6.43021 13.8969 -1.76978C13.8969 -9.96978 6.959 -16.6172 -1.59938 -16.6172C-10.1578 -16.6172 -17.0957 -9.96978 -17.0957 -1.76978C-17.0957 6.43021 -10.1578 13.0776 -1.59938 13.0776Z" fill="url(#paint4_linear_3364_69786)"/>
<path d="M7.08883 24.533C6.66479 24.533 6.2785 24.4342 5.92997 24.2365C5.80217 24.1609 5.73828 24.0534 5.73828 23.9138C5.73828 23.8208 5.76732 23.7394 5.82541 23.6696C5.88931 23.594 5.97064 23.5563 6.06938 23.5563C6.12748 23.5563 6.17976 23.5679 6.22622 23.5912C6.49343 23.7191 6.76354 23.783 7.03655 23.783C7.35023 23.783 7.60291 23.6929 7.7946 23.5127C7.99211 23.3324 8.09086 22.9923 8.09086 22.4923V18.7162C8.09086 18.6057 8.12861 18.5128 8.20413 18.4372C8.27965 18.3558 8.37258 18.3151 8.48295 18.3151C8.59332 18.3151 8.68626 18.3558 8.76177 18.4372C8.84309 18.5128 8.88376 18.6057 8.88376 18.7162V22.44C8.88376 23.2016 8.7124 23.7423 8.36968 24.0621C8.03276 24.376 7.60581 24.533 7.08883 24.533ZM11.531 24.4894C11.4206 24.4894 11.3277 24.4516 11.2522 24.376C11.1767 24.3004 11.1389 24.2075 11.1389 24.097V18.7598C11.1389 18.6493 11.1767 18.5564 11.2522 18.4808C11.3277 18.3994 11.4206 18.3587 11.531 18.3587H13.5177C14.0695 18.3587 14.5197 18.4518 14.8682 18.6378C15.2167 18.8238 15.4664 19.0622 15.6175 19.3529C15.7685 19.6435 15.8441 19.9575 15.8441 20.2947C15.8441 20.6319 15.7685 20.9459 15.6175 21.2365C15.4664 21.5272 15.2167 21.7656 14.8682 21.9517C14.5197 22.1377 14.0695 22.2307 13.5177 22.2307H11.9318V24.097C11.9318 24.2075 11.8911 24.3004 11.8099 24.376C11.7343 24.4516 11.6413 24.4894 11.531 24.4894ZM13.4392 21.4807C14.0317 21.4807 14.447 21.3674 14.6852 21.1406C14.9292 20.9139 15.0512 20.6319 15.0512 20.2947C15.0512 19.9575 14.9292 19.6755 14.6852 19.4488C14.447 19.2221 14.0317 19.1087 13.4392 19.1087H11.9318V21.4807H13.4392ZM20.2955 24.533C19.6971 24.533 19.1656 24.4022 18.7009 24.1406C18.2363 23.8731 17.876 23.504 17.6205 23.033C17.3649 22.5563 17.2371 22.0156 17.2371 21.411C17.2371 20.7947 17.3707 20.2482 17.6379 19.7715C17.9052 19.2947 18.2681 18.9255 18.7271 18.6639C19.1917 18.4023 19.7058 18.2715 20.2693 18.2715C20.7224 18.2715 21.1174 18.3267 21.4543 18.4372C21.797 18.5477 22.1252 18.7017 22.4389 18.8994C22.4853 18.9227 22.526 18.9633 22.5609 19.0215C22.5957 19.0796 22.6132 19.1436 22.6132 19.2133C22.6132 19.3121 22.5783 19.3965 22.5086 19.4662C22.4448 19.536 22.3576 19.5709 22.2472 19.5709C22.1834 19.5709 22.1224 19.5563 22.0642 19.5273C21.7913 19.3645 21.5182 19.2424 21.2452 19.161C20.9722 19.0796 20.676 19.0389 20.3564 19.0389C19.9149 19.0389 19.5171 19.132 19.1627 19.318C18.8084 19.504 18.5295 19.7773 18.3263 20.1377C18.1287 20.4924 18.03 20.9168 18.03 21.411C18.03 21.8644 18.123 22.2715 18.3088 22.6319C18.5005 22.9866 18.7735 23.2685 19.1279 23.4778C19.488 23.6812 19.9121 23.783 20.4 23.783C20.9461 23.783 21.4543 23.6551 21.9248 23.3993V21.8208H20.4871C20.3884 21.8208 20.3042 21.786 20.2345 21.7162C20.1648 21.6464 20.1299 21.5621 20.1299 21.4633C20.1299 21.3645 20.1648 21.2802 20.2345 21.2104C20.3042 21.1406 20.3884 21.1057 20.4871 21.1057H22.2037C22.3198 21.1057 22.4186 21.1465 22.4999 21.2278C22.5812 21.3092 22.6219 21.4081 22.6219 21.5243V23.504C22.6219 23.626 22.5899 23.7365 22.526 23.8353C22.4679 23.9284 22.3895 23.9982 22.2908 24.0446C21.6402 24.3702 20.9751 24.533 20.2955 24.533Z" fill="white"/>
<path d="M5.92986 24.2366L5.81763 24.4267L5.81936 24.4277L5.82111 24.4287L5.92986 24.2366ZM5.8253 23.6697L5.6569 23.5271L5.65637 23.5278L5.65584 23.5284L5.8253 23.6697ZM6.22611 23.5912L6.12746 23.7887L6.12919 23.7896L6.13093 23.7904L6.22611 23.5912ZM7.79449 23.5127L7.64587 23.3496L7.64466 23.3507L7.64346 23.3518L7.79449 23.5127ZM8.20401 18.4373L8.35999 18.5933L8.36288 18.5905L8.36566 18.5875L8.20401 18.4373ZM8.76166 18.4373L8.60001 18.5875L8.60557 18.5935L8.61156 18.5991L8.76166 18.4373ZM8.36956 24.0622L8.51987 24.2238L8.51998 24.2237L8.36956 24.0622ZM7.08872 24.3123C6.70048 24.3123 6.35202 24.2222 6.03861 24.0445L5.82111 24.4287C6.20475 24.6462 6.62887 24.7539 7.08872 24.7539V24.3123ZM6.04208 24.0465C5.97615 24.0075 5.95875 23.9694 5.95875 23.9139H5.51758C5.51758 24.1374 5.62798 24.3145 5.81763 24.4267L6.04208 24.0465ZM5.95875 23.9139C5.95875 23.8712 5.97057 23.8402 5.99475 23.811L5.65584 23.5284C5.56385 23.6388 5.51758 23.7706 5.51758 23.9139H5.95875ZM5.9937 23.8123C6.01577 23.7862 6.03553 23.7771 6.06927 23.7771V23.3356C5.9055 23.3356 5.76263 23.402 5.6569 23.5271L5.9937 23.8123ZM6.06927 23.7771C6.0972 23.7771 6.11507 23.7825 6.12746 23.7887L6.32475 23.3937C6.2442 23.3535 6.15752 23.3356 6.06927 23.3356V23.7771ZM6.13093 23.7904C6.42529 23.9313 6.72776 24.0039 7.03644 24.0039V23.5623C6.7991 23.5623 6.56134 23.507 6.32128 23.3921L6.13093 23.7904ZM7.03644 24.0039C7.39475 24.0039 7.70526 23.8996 7.94553 23.6737L7.64346 23.3518C7.50034 23.4864 7.30548 23.5623 7.03644 23.5623V24.0039ZM7.94311 23.6759C8.2132 23.4294 8.31133 23.0054 8.31133 22.4924H7.87015C7.87015 22.9795 7.77078 23.2356 7.64587 23.3496L7.94311 23.6759ZM8.31133 22.4924V18.7163H7.87015V22.4924H8.31133ZM8.31133 18.7163C8.31133 18.6622 8.32737 18.626 8.35999 18.5933L8.04803 18.2812C7.92962 18.3996 7.87015 18.5495 7.87015 18.7163H8.31133ZM8.36566 18.5875C8.3997 18.5508 8.4342 18.5359 8.48284 18.5359V18.0944C8.31074 18.0944 8.15935 18.161 8.04237 18.287L8.36566 18.5875ZM8.48284 18.5359C8.53148 18.5359 8.56598 18.5508 8.60001 18.5875L8.92331 18.287C8.80632 18.161 8.65493 18.0944 8.48284 18.0944V18.5359ZM8.61156 18.5991C8.64822 18.6331 8.66306 18.6676 8.66306 18.7163H9.10423C9.10423 18.5441 9.03775 18.3925 8.91176 18.2754L8.61156 18.5991ZM8.66306 18.7163V22.4401H9.10423V18.7163H8.66306ZM8.66306 22.4401C8.66306 23.1774 8.49584 23.6426 8.21914 23.9007L8.51998 24.2237C8.92873 23.8423 9.10423 23.226 9.10423 22.4401H8.66306ZM8.21925 23.9005C7.92829 24.1717 7.55734 24.3123 7.08872 24.3123V24.7539C7.65406 24.7539 8.13702 24.5805 8.51987 24.2238L8.21925 23.9005ZM11.2521 24.3761L11.4081 24.22L11.2521 24.3761ZM11.2521 18.4809L11.4081 18.637L11.4109 18.6341L11.4137 18.6311L11.2521 18.4809ZM14.8681 18.6378L14.9719 18.443L14.8681 18.6378ZM15.6174 19.3529L15.4217 19.4548L15.6174 19.3529ZM15.6174 21.2366L15.4217 21.1347L15.6174 21.2366ZM14.8681 21.9517L14.9719 22.1466L14.8681 21.9517ZM11.9317 22.2308V22.01H11.7111V22.2308H11.9317ZM11.8097 24.3761L11.6596 24.2143L11.6567 24.2171L11.6538 24.22L11.8097 24.3761ZM14.6851 21.1407L14.535 20.9789L14.534 20.9799L14.533 20.9807L14.6851 21.1407ZM14.6851 19.4489L14.533 19.6088L14.534 19.6097L14.535 19.6107L14.6851 19.4489ZM11.9317 19.1088V18.888H11.7111V19.1088H11.9317ZM11.9317 21.4808H11.7111V21.7016H11.9317V21.4808ZM11.5309 24.2687C11.4769 24.2687 11.4407 24.2527 11.4081 24.22L11.0961 24.5322C11.2145 24.6508 11.3643 24.7103 11.5309 24.7103V24.2687ZM11.4081 24.22C11.3754 24.1873 11.3594 24.1511 11.3594 24.097H10.9182C10.9182 24.2638 10.9777 24.4137 11.0961 24.5322L11.4081 24.22ZM11.3594 24.097V18.7599H10.9182V24.097H11.3594ZM11.3594 18.7599C11.3594 18.7058 11.3754 18.6696 11.4081 18.637L11.0961 18.3248C10.9777 18.4432 10.9182 18.5931 10.9182 18.7599H11.3594ZM11.4137 18.6311C11.4478 18.5945 11.4823 18.5795 11.5309 18.5795V18.138C11.3589 18.138 11.2074 18.2046 11.0904 18.3306L11.4137 18.6311ZM11.5309 18.5795H13.5175V18.138H11.5309V18.5795ZM13.5175 18.5795C14.0467 18.5795 14.4578 18.6691 14.7643 18.8327L14.9719 18.443C14.5812 18.2345 14.092 18.138 13.5175 18.138V18.5795ZM14.7643 18.8327C15.0817 19.0021 15.2952 19.2112 15.4217 19.4548L15.8131 19.251C15.6376 18.9133 15.3515 18.6457 14.9719 18.443L14.7643 18.8327ZM15.4217 19.4548C15.5559 19.7131 15.6234 19.992 15.6234 20.2948H16.0646C16.0646 19.9232 15.981 19.5742 15.8131 19.251L15.4217 19.4548ZM15.6234 20.2948C15.6234 20.5976 15.5559 20.8764 15.4217 21.1347L15.8131 21.3385C15.981 21.0154 16.0646 20.6664 16.0646 20.2948H15.6234ZM15.4217 21.1347C15.2952 21.3784 15.0817 21.5874 14.7643 21.7569L14.9719 22.1466C15.3515 21.9439 15.6376 21.6763 15.8131 21.3385L15.4217 21.1347ZM14.7643 21.7569C14.4578 21.9205 14.0467 22.01 13.5175 22.01V22.4516C14.092 22.4516 14.5812 22.3551 14.9719 22.1466L14.7643 21.7569ZM13.5175 22.01H11.9317V22.4516H13.5175V22.01ZM11.7111 22.2308V24.097H12.1523V22.2308H11.7111ZM11.7111 24.097C11.7111 24.1457 11.6963 24.1803 11.6596 24.2143L11.9599 24.5379C12.0858 24.4208 12.1523 24.2692 12.1523 24.097H11.7111ZM11.6538 24.22C11.6211 24.2527 11.585 24.2687 11.5309 24.2687V24.7103C11.6976 24.7103 11.8472 24.6508 11.9657 24.5322L11.6538 24.22ZM13.4391 21.7016C14.0471 21.7016 14.5356 21.5878 14.8371 21.3007L14.533 20.9807C14.3583 21.1471 14.0162 21.26 13.4391 21.26V21.7016ZM14.8352 21.3025C15.1247 21.0334 15.2717 20.6925 15.2717 20.2948H14.8305C14.8305 20.5714 14.7334 20.7945 14.535 20.9789L14.8352 21.3025ZM15.2717 20.2948C15.2717 19.897 15.1247 19.5562 14.8352 19.287L14.535 19.6107C14.7334 19.795 14.8305 20.0181 14.8305 20.2948H15.2717ZM14.8371 19.2889C14.5356 19.0018 14.0471 18.888 13.4391 18.888V19.3295C14.0162 19.3295 14.3583 19.4425 14.533 19.6088L14.8371 19.2889ZM13.4391 18.888H11.9317V19.3295H13.4391V18.888ZM11.7111 19.1088V21.4808H12.1523V19.1088H11.7111ZM11.9317 21.7016H13.4391V21.26H11.9317V21.7016ZM18.7008 24.1406L18.5908 24.3321L18.5917 24.3326L18.5926 24.3331L18.7008 24.1406ZM17.6204 23.0331L17.426 23.1375L17.4265 23.1385L17.6204 23.0331ZM17.6378 19.7715L17.8302 19.8796L17.6378 19.7715ZM18.727 18.664L18.6188 18.4716L18.6178 18.4721L18.727 18.664ZM21.4542 18.4373L21.3855 18.6471L21.3866 18.6474L21.4542 18.4373ZM22.4388 18.8995L22.3212 19.0862L22.3305 19.0921L22.3401 19.0969L22.4388 18.8995ZM22.5608 19.0215L22.3716 19.1351L22.5608 19.0215ZM22.5085 19.4663L22.3525 19.3102L22.3491 19.3136L22.3459 19.3172L22.5085 19.4663ZM22.0641 19.5274L21.9512 19.717L21.9582 19.7212L21.9654 19.7248L22.0641 19.5274ZM21.2451 19.1611L21.3081 18.9495L21.2451 19.1611ZM19.1626 19.3181L19.2651 19.5136L19.1626 19.3181ZM18.3261 20.1378L18.134 20.0293L18.1335 20.0303L18.3261 20.1378ZM18.3087 22.6319L18.1127 22.7332L18.1137 22.7352L18.1147 22.737L18.3087 22.6319ZM19.1278 23.4779L19.0156 23.668L19.0175 23.6691L19.0193 23.6702L19.1278 23.4779ZM21.9247 23.3994L22.03 23.5933L22.1453 23.5307V23.3994H21.9247ZM21.9247 21.8209H22.1453V21.6001H21.9247V21.8209ZM20.2343 21.7163L20.0784 21.8724L20.2343 21.7163ZM20.2343 21.2105L20.0784 21.0544L20.2343 21.2105ZM22.5259 23.8354L22.3407 23.7154L22.3397 23.717L22.3389 23.7184L22.5259 23.8354ZM22.2907 24.0447L22.1967 23.8449L22.1944 23.846L22.1921 23.8472L22.2907 24.0447ZM20.2953 24.3123C19.7302 24.3123 19.2367 24.1891 18.8089 23.9482L18.5926 24.3331C19.0942 24.6154 19.6639 24.7539 20.2953 24.7539V24.3123ZM18.8108 23.9492C18.3814 23.7022 18.0503 23.3627 17.8142 22.9277L17.4265 23.1385C17.7017 23.6453 18.0908 24.0443 18.5908 24.3321L18.8108 23.9492ZM17.8147 22.9287C17.5784 22.4877 17.4576 21.9836 17.4576 21.411H17.0164C17.0164 22.0478 17.1513 22.625 17.426 23.1375L17.8147 22.9287ZM17.4576 21.411C17.4576 20.8277 17.5838 20.3193 17.8302 19.8796L17.4454 19.6635C17.1575 20.1773 17.0164 20.7618 17.0164 21.411H17.4576ZM17.8302 19.8796C18.0784 19.4365 18.4133 19.0969 18.8361 18.8559L18.6178 18.4721C18.1228 18.7543 17.7315 19.153 17.4454 19.6635L17.8302 19.8796ZM18.835 18.8564C19.2649 18.6144 19.7414 18.4923 20.2692 18.4923V18.0508C19.6701 18.0508 19.1184 18.1903 18.6188 18.4716L18.835 18.8564ZM20.2692 18.4923C20.7051 18.4923 21.076 18.5455 21.3855 18.6471L21.5229 18.2274C21.1586 18.1081 20.7395 18.0508 20.2692 18.0508V18.4923ZM21.3866 18.6474C21.7112 18.7521 22.0228 18.8981 22.3212 19.0862L22.5564 18.7127C22.2275 18.5054 21.8826 18.3434 21.5218 18.2271L21.3866 18.6474ZM22.3401 19.0969C22.3402 19.0969 22.3408 19.0973 22.3421 19.0982C22.3434 19.0992 22.3454 19.1008 22.3481 19.1036C22.3538 19.1091 22.3619 19.1189 22.3716 19.1351L22.7499 18.908C22.7 18.8246 22.6313 18.7489 22.5374 18.702L22.3401 19.0969ZM22.3716 19.1351C22.3853 19.158 22.3925 19.1824 22.3925 19.2134H22.8336C22.8336 19.1049 22.806 19.0015 22.7499 18.908L22.3716 19.1351ZM22.3925 19.2134C22.3925 19.2538 22.3808 19.282 22.3525 19.3102L22.6645 19.6224C22.7756 19.5111 22.8336 19.3707 22.8336 19.2134H22.3925ZM22.3459 19.3172C22.3308 19.3335 22.307 19.3502 22.2471 19.3502V19.7917C22.408 19.7917 22.5583 19.7386 22.6711 19.6154L22.3459 19.3172ZM22.2471 19.3502C22.218 19.3502 22.1907 19.3439 22.1627 19.3299L21.9654 19.7248C22.0536 19.769 22.1484 19.7917 22.2471 19.7917V19.3502ZM22.1771 19.3377C21.8901 19.1666 21.6004 19.0367 21.3081 18.9495L21.1821 19.3727C21.4358 19.4483 21.6921 19.5626 21.9512 19.717L22.1771 19.3377ZM21.3081 18.9495C21.0122 18.8613 20.6946 18.8182 20.3563 18.8182V19.2598C20.657 19.2598 20.9318 19.2981 21.1821 19.3727L21.3081 18.9495ZM20.3563 18.8182C19.8829 18.8182 19.4493 18.9182 19.0602 19.1226L19.2651 19.5136C19.5846 19.3458 19.9468 19.2598 20.3563 19.2598V18.8182ZM19.0602 19.1226C18.6668 19.329 18.3575 19.6331 18.134 20.0293L18.5183 20.2463C18.7014 19.9216 18.9496 19.6791 19.2651 19.5136L19.0602 19.1226ZM18.1335 20.0303C17.9141 20.4243 17.8093 20.8874 17.8093 21.411H18.2505C18.2505 20.9464 18.3432 20.5606 18.5188 20.2453L18.1335 20.0303ZM17.8093 21.411C17.8093 21.8955 17.9088 22.3379 18.1127 22.7332L18.5047 22.5307C18.3368 22.2051 18.2505 21.8335 18.2505 21.411H17.8093ZM18.1147 22.737C18.3259 23.1277 18.6276 23.4388 19.0156 23.668L19.2398 23.2878C18.9193 23.0983 18.6749 22.8454 18.5027 22.5269L18.1147 22.737ZM19.0193 23.6702C19.4181 23.8955 19.8809 24.0039 20.3999 24.0039V23.5623C19.9431 23.5623 19.5578 23.4673 19.2362 23.2856L19.0193 23.6702ZM20.3999 24.0039C20.9819 24.0039 21.5266 23.8671 22.03 23.5933L21.8194 23.2054C21.3818 23.4432 20.9099 23.5623 20.3999 23.5623V24.0039ZM22.1453 23.3994V21.8209H21.7041V23.3994H22.1453ZM21.9247 21.6001H20.487V22.0417H21.9247V21.6001ZM20.487 21.6001C20.4467 21.6001 20.4185 21.5884 20.3903 21.5602L20.0784 21.8724C20.1896 21.9836 20.3299 22.0417 20.487 22.0417V21.6001ZM20.3903 21.5602C20.3621 21.5319 20.3504 21.5038 20.3504 21.4634H19.9092C19.9092 21.6207 19.9672 21.7611 20.0784 21.8724L20.3903 21.5602ZM20.3504 21.4634C20.3504 21.423 20.3621 21.3948 20.3903 21.3666L20.0784 21.0544C19.9672 21.1656 19.9092 21.3061 19.9092 21.4634H20.3504ZM20.3903 21.3666C20.4185 21.3383 20.4467 21.3266 20.487 21.3266V20.885C20.3299 20.885 20.1896 20.9431 20.0784 21.0544L20.3903 21.3666ZM20.487 21.3266H22.2035V20.885H20.487V21.3266ZM22.2035 21.3266C22.2619 21.3266 22.3043 21.3445 22.3438 21.384L22.6557 21.0718C22.5325 20.9485 22.3776 20.885 22.2035 20.885V21.3266ZM22.3438 21.384C22.3833 21.4235 22.4012 21.466 22.4012 21.5244H22.8424C22.8424 21.3502 22.7789 21.195 22.6557 21.0718L22.3438 21.384ZM22.4012 21.5244V23.504H22.8424V21.5244H22.4012ZM22.4012 23.504C22.4012 23.5853 22.3807 23.6537 22.3407 23.7154L22.7111 23.9554C22.799 23.8194 22.8424 23.667 22.8424 23.504H22.4012ZM22.3389 23.7184C22.3031 23.7756 22.2569 23.8165 22.1967 23.8449L22.3846 24.2445C22.5218 24.1798 22.6326 24.0813 22.713 23.9524L22.3389 23.7184ZM22.1921 23.8472C21.5699 24.1586 20.9383 24.3123 20.2953 24.3123V24.7539C21.0116 24.7539 21.7103 24.582 22.3893 24.2422L22.1921 23.8472Z" fill="white"/>
<g filter="url(#filter1_d_3364_69786)">
<path d="M30 11.7519H21.1765C19.8364 11.7519 18.75 10.6646 18.75 9.32336V0.492188L30 11.7519Z" fill="url(#paint5_linear_3364_69786)"/>
</g>
</g>
</g>
<defs>
<filter id="filter0_f_3364_69786" x="-33.7061" y="-22.0605" width="97.6328" height="87.2734" filterUnits="userSpaceOnUse" color-interpolation-filters="sRGB">
<feFlood flood-opacity="0" result="BackgroundImageFix"/>
<feBlend mode="normal" in="SourceGraphic" in2="BackgroundImageFix" result="shape"/>
<feGaussianBlur stdDeviation="19.5" result="effect1_foregroundBlur_3364_69786"/>
</filter>
<filter id="filter1_d_3364_69786" x="-4.25" y="-23.5078" width="61.25" height="61.2598" filterUnits="userSpaceOnUse" color-interpolation-filters="sRGB">
<feFlood flood-opacity="0" result="BackgroundImageFix"/>
<feColorMatrix in="SourceAlpha" type="matrix" values="0 0 0 0 0 0 0 0 0 0 0 0 0 0 0 0 0 0 127 0" result="hardAlpha"/>
<feOffset dx="2" dy="1"/>
<feGaussianBlur stdDeviation="12.5"/>
<feColorMatrix type="matrix" values="0 0 0 0 0 0 0 0 0 0 0 0 0 0 0 0 0 0 0.33 0"/>
<feBlend mode="normal" in2="BackgroundImageFix" result="effect1_dropShadow_3364_69786"/>
<feBlend mode="normal" in="SourceGraphic" in2="effect1_dropShadow_3364_69786" result="shape"/>
</filter>
<linearGradient id="paint0_linear_3364_69786" x1="15" y1="0.492188" x2="15" y2="34.4922" gradientUnits="userSpaceOnUse">
<stop stop-color="#FF7979"/>
<stop offset="1" stop-color="#E85555"/>
</linearGradient>
<linearGradient id="paint1_linear_3364_69786" x1="15" y1="0.492188" x2="15" y2="34.4922" gradientUnits="userSpaceOnUse">
<stop stop-color="#ED81FF"/>
<stop offset="1" stop-color="#DC5DD7"/>
</linearGradient>
<linearGradient id="paint2_linear_3364_69786" x1="15" y1="0.492188" x2="15" y2="34.4922" gradientUnits="userSpaceOnUse">
<stop stop-color="#ED81FF"/>
<stop offset="1" stop-color="#DC5DD7"/>
</linearGradient>
<linearGradient id="paint3_linear_3364_69786" x1="0.19056" y1="-0.956955" x2="7.67754" y2="18.8964" gradientUnits="userSpaceOnUse">
<stop stop-color="white" stop-opacity="0"/>
<stop offset="1" stop-color="white"/>
</linearGradient>
<linearGradient id="paint4_linear_3364_69786" x1="-0.474234" y1="-1.25956" x2="4.21144" y2="11.1971" gradientUnits="userSpaceOnUse">
<stop stop-color="white" stop-opacity="0"/>
<stop offset="1" stop-color="white"/>
</linearGradient>
<linearGradient id="paint5_linear_3364_69786" x1="21.2316" y1="-3.04028" x2="24.3802" y2="11.7508" gradientUnits="userSpaceOnUse">
<stop stop-color="#F171BE"/>
<stop offset="1" stop-color="#D823D1"/>
</linearGradient>
</defs>
</svg>
