<svg width="29" height="33" viewBox="0 0 29 33" fill="none" xmlns="http://www.w3.org/2000/svg">
<g clip-path="url(#clip0_105_771)">
<mask id="mask0_105_771" style="mask-type:alpha" maskUnits="userSpaceOnUse" x="0" y="0" width="29" height="33">
<path d="M26.6544 33H2.34559C1.05016 33 0 31.9446 0 30.6429V2.35714C0 1.05533 1.05016 0 2.34559 0H18.125L29 10.9286V30.6429C29 31.9446 27.9498 33 26.6544 33Z" fill="url(#paint0_linear_105_771)"/>
</mask>
<g mask="url(#mask0_105_771)">
<path d="M26.6544 33H2.34559C1.05016 33 0 31.9446 0 30.6429V2.35714C0 1.05533 1.05016 0 2.34559 0H18.125L29 10.9286V30.6429C29 31.9446 27.9498 33 26.6544 33Z" fill="url(#paint1_linear_105_771)"/>
<path opacity="0.12" fill-rule="evenodd" clip-rule="evenodd" d="M21.2169 14.8926H7.78308V13.6069H21.2169V14.8926ZM21.2169 18.1069H7.78308V16.8212H21.2169V18.1069ZM7.78308 21.3212H21.2169V20.0355H7.78308V21.3212ZM21.2169 24.5355H7.78308V23.2498H21.2169V24.5355ZM7.78308 27.7498H21.2169V26.4641H7.78308V27.7498Z" fill="white"/>
<mask id="mask1_105_771" style="mask-type:alpha" maskUnits="userSpaceOnUse" x="0" y="0" width="29" height="33">
<path d="M26.6544 33H2.34559C1.05016 33 0 31.9446 0 30.6429V2.35714C0 1.05533 1.05016 0 2.34559 0H18.125L29 10.9286V30.6429C29 31.9446 27.9498 33 26.6544 33Z" fill="url(#paint2_linear_105_771)"/>
</mask>
<g mask="url(#mask1_105_771)">
<path opacity="0.08" d="M-2.93194 22.2856C10.2285 22.2856 20.8971 11.9961 20.8971 -0.696568C20.8971 -13.3893 10.2285 -23.6787 -2.93194 -23.6787C-16.0924 -23.6787 -26.761 -13.3893 -26.761 -0.696568C-26.761 11.9961 -16.0924 22.2856 -2.93194 22.2856Z" fill="url(#paint3_linear_105_771)"/>
<path opacity="0.08" d="M-2.93196 13.714C5.34114 13.714 12.0478 7.26211 12.0478 -0.696708C12.0478 -8.65552 5.34114 -15.1074 -2.93196 -15.1074C-11.2051 -15.1074 -17.9117 -8.65552 -17.9117 -0.696708C-17.9117 7.26211 -11.2051 13.714 -2.93196 13.714Z" fill="url(#paint4_linear_105_771)"/>
<g filter="url(#filter0_d_105_771)">
<path d="M29 10.9286H20.4706C19.1752 10.9286 18.125 9.87325 18.125 8.57143V0L29 10.9286Z" fill="url(#paint5_linear_105_771)"/>
</g>
</g>
<path d="M5.242 13.691C5.326 13.691 5.413 13.715 5.503 13.763C5.599 13.805 5.671 13.862 5.719 13.934L7.906 17.3L7.456 17.282L9.697 13.934C9.811 13.772 9.958 13.691 10.138 13.691C10.282 13.691 10.411 13.742 10.525 13.844C10.639 13.946 10.696 14.078 10.696 14.24V19.451C10.696 19.607 10.645 19.739 10.543 19.847C10.441 19.949 10.306 20 10.138 20C9.97 20 9.832 19.949 9.724 19.847C9.622 19.739 9.571 19.607 9.571 19.451V15.212L9.922 15.293L8.086 18.092C8.032 18.158 7.963 18.215 7.879 18.263C7.801 18.311 7.72 18.332 7.636 18.326C7.558 18.332 7.477 18.311 7.393 18.263C7.315 18.215 7.249 18.158 7.195 18.092L5.476 15.374L5.71 14.897V19.451C5.71 19.607 5.662 19.739 5.566 19.847C5.47 19.949 5.344 20 5.188 20C5.038 20 4.915 19.949 4.819 19.847C4.723 19.739 4.675 19.607 4.675 19.451V14.24C4.675 14.09 4.729 13.961 4.837 13.853C4.951 13.745 5.086 13.691 5.242 13.691ZM15.55 13.7C15.862 13.7 16.153 13.79 16.423 13.97C16.699 14.15 16.921 14.393 17.089 14.699C17.257 15.005 17.341 15.347 17.341 15.725C17.341 16.097 17.257 16.436 17.089 16.742C16.921 17.048 16.699 17.294 16.423 17.48C16.153 17.66 15.862 17.75 15.55 17.75H13.894L13.984 17.588V19.451C13.984 19.607 13.936 19.739 13.84 19.847C13.744 19.949 13.618 20 13.462 20C13.312 20 13.189 19.949 13.093 19.847C12.997 19.739 12.949 19.607 12.949 19.451V14.249C12.949 14.093 13 13.964 13.102 13.862C13.21 13.754 13.342 13.7 13.498 13.7H15.55ZM15.55 16.724C15.664 16.724 15.775 16.676 15.883 16.58C15.991 16.484 16.081 16.361 16.153 16.211C16.225 16.055 16.261 15.893 16.261 15.725C16.261 15.551 16.225 15.389 16.153 15.239C16.081 15.089 15.991 14.969 15.883 14.879C15.775 14.783 15.664 14.735 15.55 14.735H13.876L13.984 14.573V16.868L13.885 16.724H15.55ZM19.6049 18.731C19.6589 18.731 19.7159 18.74 19.7759 18.758C19.8419 18.776 19.9139 18.812 19.9919 18.866C20.0939 18.944 20.2139 19.013 20.3519 19.073C20.4959 19.133 20.6609 19.163 20.8469 19.163C21.0329 19.163 21.2069 19.118 21.3689 19.028C21.5369 18.932 21.6749 18.8 21.7829 18.632C21.8909 18.458 21.9449 18.251 21.9449 18.011C21.9449 17.783 21.8969 17.594 21.8009 17.444C21.7109 17.294 21.5879 17.18 21.4319 17.102C21.2819 17.024 21.1199 16.985 20.9459 16.985C20.8139 16.985 20.7029 16.997 20.6129 17.021C20.5289 17.045 20.4449 17.072 20.3609 17.102C20.2829 17.126 20.1899 17.138 20.0819 17.138C19.9439 17.138 19.8359 17.09 19.7579 16.994C19.6859 16.898 19.6499 16.784 19.6499 16.652C19.6499 16.568 19.6649 16.493 19.6949 16.427C19.7309 16.361 19.7819 16.289 19.8479 16.211L21.4319 14.528L21.6749 14.735H19.4609C19.3169 14.735 19.1969 14.687 19.1009 14.591C19.0049 14.495 18.9569 14.375 18.9569 14.231C18.9569 14.093 19.0049 13.979 19.1009 13.889C19.1969 13.793 19.3169 13.745 19.4609 13.745H22.2149C22.4009 13.745 22.5389 13.796 22.6289 13.898C22.7249 14 22.7729 14.129 22.7729 14.285C22.7729 14.363 22.7519 14.441 22.7099 14.519C22.6679 14.591 22.6169 14.657 22.5569 14.717L20.9639 16.427L20.7209 16.121C20.7869 16.091 20.8769 16.064 20.9909 16.04C21.1109 16.016 21.2099 16.004 21.2879 16.004C21.6419 16.004 21.9479 16.097 22.2059 16.283C22.4699 16.463 22.6709 16.7 22.8089 16.994C22.9529 17.282 23.0249 17.594 23.0249 17.93C23.0249 18.374 22.9259 18.758 22.7279 19.082C22.5299 19.406 22.2509 19.655 21.8909 19.829C21.5309 20.003 21.1109 20.09 20.6309 20.09C20.4089 20.09 20.1899 20.063 19.9739 20.009C19.7579 19.955 19.5719 19.883 19.4159 19.793C19.2839 19.721 19.1939 19.643 19.1459 19.559C19.1039 19.469 19.0829 19.385 19.0829 19.307C19.0829 19.169 19.1309 19.04 19.2269 18.92C19.3289 18.794 19.4549 18.731 19.6049 18.731Z" fill="white"/>
</g>
</g>
<defs>
<filter id="filter0_d_105_771" x="-4.875" y="-24" width="60.875" height="60.9287" filterUnits="userSpaceOnUse" color-interpolation-filters="sRGB">
<feFlood flood-opacity="0" result="BackgroundImageFix"/>
<feColorMatrix in="SourceAlpha" type="matrix" values="0 0 0 0 0 0 0 0 0 0 0 0 0 0 0 0 0 0 127 0" result="hardAlpha"/>
<feOffset dx="2" dy="1"/>
<feGaussianBlur stdDeviation="12.5"/>
<feColorMatrix type="matrix" values="0 0 0 0 0 0 0 0 0 0 0 0 0 0 0 0 0 0 0.33 0"/>
<feBlend mode="normal" in2="BackgroundImageFix" result="effect1_dropShadow_105_771"/>
<feBlend mode="normal" in="SourceGraphic" in2="effect1_dropShadow_105_771" result="shape"/>
</filter>
<linearGradient id="paint0_linear_105_771" x1="14.5" y1="0" x2="14.5" y2="33" gradientUnits="userSpaceOnUse">
<stop stop-color="#FF7979"/>
<stop offset="1" stop-color="#E85555"/>
</linearGradient>
<linearGradient id="paint1_linear_105_771" x1="14.5" y1="0" x2="14.5" y2="33" gradientUnits="userSpaceOnUse">
<stop stop-color="#00CBFE" stop-opacity="0.8"/>
<stop offset="1" stop-color="#00CCFF"/>
</linearGradient>
<linearGradient id="paint2_linear_105_771" x1="14.5" y1="0" x2="14.5" y2="33" gradientUnits="userSpaceOnUse">
<stop stop-color="#FF7981"/>
<stop offset="1" stop-color="#E85567"/>
</linearGradient>
<linearGradient id="paint3_linear_105_771" x1="-1.20178" y1="0.0931981" x2="6.0871" y2="19.3432" gradientUnits="userSpaceOnUse">
<stop stop-color="white" stop-opacity="0"/>
<stop offset="1" stop-color="white"/>
</linearGradient>
<linearGradient id="paint4_linear_105_771" x1="-1.84432" y1="-0.201495" x2="2.71739" y2="11.8766" gradientUnits="userSpaceOnUse">
<stop stop-color="white" stop-opacity="0"/>
<stop offset="1" stop-color="white"/>
</linearGradient>
<linearGradient id="paint5_linear_105_771" x1="23.5625" y1="0" x2="23.5625" y2="10.9286" gradientUnits="userSpaceOnUse">
<stop stop-color="#0196BC" stop-opacity="0.8"/>
<stop offset="1" stop-color="#0193B9"/>
</linearGradient>
<clipPath id="clip0_105_771">
<rect width="29" height="33" fill="white"/>
</clipPath>
</defs>
</svg>
