<svg width="33" height="27" viewBox="0 0 33 27" fill="none" xmlns="http://www.w3.org/2000/svg">
<path d="M27.6264 0.126958H4.9154C3.0753 0.123878 1.58114 1.64976 1.57813 3.53513C1.57788 3.68854 1.58771 3.84176 1.60762 3.99376C1.65497 4.36859 1.98993 4.63312 2.35584 4.58462C2.44495 4.57281 2.5308 4.54272 2.60827 4.49607C2.90297 4.3204 3.23856 4.22961 3.57948 4.23327H8.33545C9.19375 4.23571 9.9563 4.795 10.2352 5.62666L10.3487 6.00168C10.8083 7.39571 12.0828 8.33554 13.5189 8.33952H28.9624C29.3127 8.33984 29.6567 8.43422 29.9603 8.61329C30.0629 8.67457 30.1795 8.70665 30.2983 8.70639C30.6672 8.70639 30.9663 8.39996 30.9663 8.02199V3.54886C30.9663 1.659 29.471 0.126958 27.6264 0.126958Z" fill="#344563"/>
<path d="M30.6389 7.43235C30.1307 7.12893 29.553 6.9693 28.9649 6.96968H13.5214C12.6631 6.96725 11.9006 6.40795 11.6217 5.5763L11.5082 5.20128C11.0485 3.80725 9.77411 2.86741 8.338 2.86344H3.58202C3.00809 2.85773 2.4433 3.01043 1.94683 3.30557C0.89396 3.90926 0.241875 5.04908 0.242188 6.28534V22.7106C0.242188 24.6005 1.73748 26.1325 3.58202 26.1325H28.9649C30.8094 26.1325 32.3047 24.6005 32.3047 22.7106V10.3917C32.3089 9.17015 31.6729 8.0404 30.6389 7.43235Z" fill="#2176FF"/>
</svg>
