<svg width="29" height="34" viewBox="0 0 29 34" fill="none" xmlns="http://www.w3.org/2000/svg">
<path d="M26.6544 33.2852H2.34559C1.05016 33.2852 0 32.2298 0 30.928V2.6423C0 1.34049 1.05016 0.285156 2.34559 0.285156H18.125L29 11.2137V30.928C29 32.2298 27.9498 33.2852 26.6544 33.2852Z" fill="url(#paint0_linear_3826_27538)"/>
<path opacity="0.12" fill-rule="evenodd" clip-rule="evenodd" d="M21.2151 15.1783H7.78125V13.8926H21.2151V15.1783ZM21.2151 18.3926H7.78125V17.1069H21.2151V18.3926ZM7.78125 21.6069H21.2151V20.3211H7.78125V21.6069ZM21.2151 24.8211H7.78125V23.5354H21.2151V24.8211ZM7.78125 28.0354H21.2151V26.7497H7.78125V28.0354Z" fill="white"/>
<path d="M6.63684 23.5773C6.53015 23.5773 6.44031 23.5407 6.36731 23.4673C6.29431 23.3939 6.25781 23.3037 6.25781 23.1965V18.0163C6.25781 17.9091 6.29431 17.8188 6.36731 17.7455C6.44031 17.6665 6.53015 17.627 6.63684 17.627H8.55724C9.09068 17.627 9.52586 17.7173 9.86277 17.8978C10.1997 18.0783 10.4411 18.3098 10.5871 18.5919C10.7331 18.874 10.8061 19.1787 10.8061 19.506C10.8061 19.8333 10.7331 20.1381 10.5871 20.4202C10.4411 20.7023 10.1997 20.9337 9.86277 21.1142C9.52586 21.2948 9.09068 21.3851 8.55724 21.3851H7.02429V23.1965C7.02429 23.3037 6.98498 23.3939 6.90637 23.4673C6.83337 23.5407 6.74353 23.5773 6.63684 23.5773ZM8.48143 20.6572C9.05418 20.6572 9.45567 20.5471 9.68589 20.3271C9.92173 20.107 10.0396 19.8333 10.0396 19.506C10.0396 19.1787 9.92173 18.9051 9.68589 18.685C9.45567 18.4649 9.05418 18.3549 8.48143 18.3549H7.02429V20.6572H8.48143ZM12.8855 23.535C12.7788 23.535 12.689 23.4984 12.616 23.425C12.5429 23.3516 12.5065 23.2614 12.5065 23.1541V18.0163C12.5065 17.9091 12.5429 17.8188 12.616 17.7455C12.689 17.6665 12.7788 17.627 12.8855 17.627H14.5785C15.2186 17.627 15.7604 17.7708 16.2041 18.0586C16.6532 18.3407 16.9902 18.7076 17.2148 19.159C17.4394 19.6104 17.5517 20.0844 17.5517 20.581C17.5517 21.0776 17.4394 21.5516 17.2148 22.003C16.9902 22.4544 16.6532 22.824 16.2041 23.1118C15.7604 23.3939 15.2186 23.535 14.5785 23.535H12.8855ZM14.4858 22.8156C14.9463 22.8156 15.3506 22.7225 15.6987 22.5362C16.0468 22.3443 16.3163 22.082 16.5073 21.7491C16.6982 21.4105 16.7937 21.0211 16.7937 20.581C16.7937 20.1408 16.6982 19.7543 16.5073 19.4214C16.3163 19.0828 16.0468 18.8204 15.6987 18.6342C15.3506 18.4423 14.9463 18.3464 14.4858 18.3464H13.2729V22.8156H14.4858ZM19.8004 23.5773C19.6938 23.5773 19.6039 23.5407 19.5309 23.4673C19.4579 23.3939 19.4214 23.3037 19.4214 23.1965V18.0163C19.4214 17.9091 19.4579 17.8188 19.5309 17.7455C19.6039 17.6665 19.6938 17.627 19.8004 17.627H23.0769C23.1779 17.627 23.2622 17.6636 23.3295 17.737C23.4026 17.8047 23.439 17.8893 23.439 17.9909C23.439 18.0925 23.4026 18.1771 23.3295 18.2448C23.2622 18.3126 23.1779 18.3464 23.0769 18.3464H20.1878V20.217H22.7821C22.8831 20.217 22.9674 20.2537 23.0347 20.3271C23.1078 20.3948 23.1442 20.4794 23.1442 20.581C23.1442 20.6826 23.1078 20.7672 23.0347 20.8349C22.9674 20.9026 22.8831 20.9365 22.7821 20.9365H20.1878V23.1965C20.1878 23.3037 20.1486 23.3939 20.0699 23.4673C19.997 23.5407 19.9071 23.5773 19.8004 23.5773Z" fill="white"/>
<path d="M6.36179 23.4668L6.51257 23.3153L6.36179 23.4668ZM6.36179 17.7449L6.51257 17.8964L6.51537 17.8936L6.51805 17.8907L6.36179 17.7449ZM9.85725 17.8973L9.9576 17.7081L9.85725 17.8973ZM10.5816 18.5913L10.3924 18.6902L10.5816 18.5913ZM10.5816 20.4196L10.3924 20.3207L10.5816 20.4196ZM9.85725 21.1137L9.9576 21.3028L9.85725 21.1137ZM7.01877 21.3845V21.1703H6.80554V21.3845H7.01877ZM6.90085 23.4668L6.75576 23.3097L6.75287 23.3125L6.75007 23.3153L6.90085 23.4668ZM9.68038 20.3265L9.53528 20.1694L9.53434 20.1704L9.53341 20.1713L9.68038 20.3265ZM9.68038 18.6844L9.53341 18.8397L9.53434 18.8405L9.53528 18.8415L9.68038 18.6844ZM7.01877 18.3543V18.14H6.80554V18.3543H7.01877ZM7.01877 20.6566H6.80554V20.8709H7.01877V20.6566ZM6.63132 23.3625C6.57907 23.3625 6.54411 23.347 6.51257 23.3153L6.21102 23.6183C6.32547 23.7333 6.47019 23.7911 6.63132 23.7911V23.3625ZM6.51257 23.3153C6.48104 23.2835 6.46553 23.2484 6.46553 23.1959H6.03906C6.03906 23.3578 6.09656 23.5033 6.21102 23.6183L6.51257 23.3153ZM6.46553 23.1959V18.0158H6.03906V23.1959H6.46553ZM6.46553 18.0158C6.46553 17.9633 6.48104 17.9281 6.51257 17.8964L6.21102 17.5934C6.09656 17.7084 6.03906 17.8539 6.03906 18.0158H6.46553ZM6.51805 17.8907C6.55096 17.8551 6.58431 17.8407 6.63132 17.8407V17.4121C6.46497 17.4121 6.31862 17.4767 6.20554 17.5991L6.51805 17.8907ZM6.63132 17.8407H8.55172V17.4121H6.63132V17.8407ZM8.55172 17.8407C9.06329 17.8407 9.46069 17.9276 9.75691 18.0864L9.9576 17.7081C9.57999 17.5058 9.10704 17.4121 8.55172 17.4121V17.8407ZM9.75691 18.0864C10.0638 18.2508 10.2701 18.4538 10.3924 18.6902L10.7708 18.4924C10.6011 18.1646 10.3245 17.9049 9.9576 17.7081L9.75691 18.0864ZM10.3924 18.6902C10.5222 18.9409 10.5874 19.2116 10.5874 19.5055H11.0138C11.0138 19.1448 10.933 18.806 10.7708 18.4924L10.3924 18.6902ZM10.5874 19.5055C10.5874 19.7994 10.5222 20.07 10.3924 20.3207L10.7708 20.5185C10.933 20.2049 11.0138 19.8661 11.0138 19.5055H10.5874ZM10.3924 20.3207C10.2701 20.5572 10.0638 20.7601 9.75691 20.9246L9.9576 21.3028C10.3245 21.1061 10.6011 20.8464 10.7708 20.5185L10.3924 20.3207ZM9.75691 20.9246C9.46069 21.0834 9.06329 21.1703 8.55172 21.1703V21.5988C9.10704 21.5988 9.57999 21.5052 9.9576 21.3028L9.75691 20.9246ZM8.55172 21.1703H7.01877V21.5988H8.55172V21.1703ZM6.80554 21.3845V23.1959H7.23201V21.3845H6.80554ZM6.80554 23.1959C6.80554 23.2431 6.7912 23.2767 6.75576 23.3097L7.04595 23.6238C7.16774 23.5101 7.23201 23.363 7.23201 23.1959H6.80554ZM6.75007 23.3153C6.71854 23.347 6.68358 23.3625 6.63132 23.3625V23.7911C6.79245 23.7911 6.93718 23.7333 7.05163 23.6183L6.75007 23.3153ZM8.47592 20.8709C9.06359 20.8709 9.53586 20.7604 9.82734 20.4818L9.53341 20.1713C9.36446 20.3327 9.03374 20.4423 8.47592 20.4423V20.8709ZM9.82547 20.4836C10.1053 20.2224 10.2474 19.8915 10.2474 19.5055H9.8209C9.8209 19.774 9.72708 19.9905 9.53528 20.1694L9.82547 20.4836ZM10.2474 19.5055C10.2474 19.1194 10.1053 18.7886 9.82547 18.5274L9.53528 18.8415C9.72708 19.0204 9.8209 19.237 9.8209 19.5055H10.2474ZM9.82734 18.5292C9.53586 18.2505 9.06359 18.14 8.47592 18.14V18.5686C9.03374 18.5686 9.36446 18.6782 9.53341 18.8397L9.82734 18.5292ZM8.47592 18.14H7.01877V18.5686H8.47592V18.14ZM6.80554 18.3543V20.6566H7.23201V18.3543H6.80554ZM7.01877 20.8709H8.47592V20.4423H7.01877V20.8709ZM12.6104 23.4244L12.7612 23.2729L12.6104 23.4244ZM12.6104 17.7449L12.7612 17.8964L12.7641 17.8936L12.7667 17.8907L12.6104 17.7449ZM16.1986 18.0581L16.0829 18.2381L16.0843 18.2389L16.0855 18.2398L16.1986 18.0581ZM17.2093 19.1584L17.0185 19.2542L17.2093 19.1584ZM17.2093 22.0024L17.0185 21.9066L17.2093 22.0024ZM16.1986 23.1113L16.3126 23.2923L16.3132 23.2919L16.1986 23.1113ZM15.6932 22.5357L15.7934 22.7248L15.7946 22.7243L15.7958 22.7236L15.6932 22.5357ZM16.5018 21.7485L16.6865 21.8555L16.687 21.8548L16.6873 21.8541L16.5018 21.7485ZM16.5018 19.4208L16.3163 19.5265L16.3167 19.5271L16.317 19.5279L16.5018 19.4208ZM15.6932 18.6336L15.5906 18.8216L15.5918 18.8222L15.593 18.8228L15.6932 18.6336ZM13.2674 18.3459V18.1316H13.0542V18.3459H13.2674ZM13.2674 22.815H13.0542V23.0293H13.2674V22.815ZM12.88 23.3202C12.8277 23.3202 12.7928 23.3046 12.7612 23.2729L12.4597 23.5759C12.5741 23.691 12.7189 23.7488 12.88 23.7488V23.3202ZM12.7612 23.2729C12.7297 23.2412 12.7142 23.2061 12.7142 23.1536H12.2877C12.2877 23.3155 12.3452 23.461 12.4597 23.5759L12.7612 23.2729ZM12.7142 23.1536V18.0158H12.2877V23.1536H12.7142ZM12.7142 18.0158C12.7142 17.9633 12.7297 17.9281 12.7612 17.8964L12.4597 17.5934C12.3452 17.7084 12.2877 17.8539 12.2877 18.0158H12.7142ZM12.7667 17.8907C12.7996 17.8551 12.833 17.8407 12.88 17.8407V17.4121C12.7136 17.4121 12.5673 17.4767 12.4542 17.5991L12.7667 17.8907ZM12.88 17.8407H14.573V17.4121H12.88V17.8407ZM14.573 17.8407C15.1809 17.8407 15.6805 17.9771 16.0829 18.2381L16.3142 17.8781C15.8294 17.5635 15.2454 17.4121 14.573 17.4121V17.8407ZM16.0855 18.2398C16.5034 18.5022 16.8125 18.8401 17.0185 19.2542L17.4 19.0626C17.1569 18.574 16.7922 18.1782 16.3116 17.8764L16.0855 18.2398ZM17.0185 19.2542C17.2286 19.6765 17.333 20.1177 17.333 20.5804H17.7594C17.7594 20.0501 17.6392 19.5433 17.4 19.0626L17.0185 19.2542ZM17.333 20.5804C17.333 21.0432 17.2286 21.4844 17.0185 21.9066L17.4 22.0982C17.6392 21.6176 17.7594 21.1108 17.7594 20.5804H17.333ZM17.0185 21.9066C16.8122 22.3212 16.5026 22.6623 16.0839 22.9306L16.3132 23.2919C16.7928 22.9846 17.1572 22.5865 17.4 22.0982L17.0185 21.9066ZM16.0846 22.9302C15.6819 23.1863 15.1816 23.3202 14.573 23.3202V23.7488C15.2445 23.7488 15.8281 23.6005 16.3126 23.2923L16.0846 22.9302ZM14.573 23.3202H12.88V23.7488H14.573V23.3202ZM14.4803 23.0293C14.9698 23.0293 15.4096 22.9301 15.7934 22.7248L15.593 22.3466C15.2805 22.5137 14.9117 22.6007 14.4803 22.6007V23.0293ZM15.7958 22.7236C16.1768 22.5136 16.4753 22.2238 16.6865 21.8555L16.317 21.6415C16.1464 21.9391 15.9059 22.1741 15.5906 22.3478L15.7958 22.7236ZM16.6873 21.8541C16.8987 21.4794 17.0014 21.0527 17.0014 20.5804H16.5749C16.5749 20.9884 16.4867 21.3405 16.3163 21.6429L16.6873 21.8541ZM17.0014 20.5804C17.0014 20.1083 16.8987 19.6838 16.6865 19.3138L16.317 19.5279C16.4867 19.8237 16.5749 20.1723 16.5749 20.5804H17.0014ZM16.6873 19.3152C16.4761 18.9405 16.1766 18.6495 15.7934 18.4445L15.593 18.8228C15.9061 18.9902 16.1457 19.224 16.3163 19.5265L16.6873 19.3152ZM15.7958 18.4457C15.4115 18.234 14.9709 18.1316 14.4803 18.1316V18.5601C14.9107 18.5601 15.2787 18.6496 15.5906 18.8216L15.7958 18.4457ZM14.4803 18.1316H13.2674V18.5601H14.4803V18.1316ZM13.0542 18.3459V22.815H13.4807V18.3459H13.0542ZM13.2674 23.0293H14.4803V22.6007H13.2674V23.0293ZM19.5253 23.4668L19.6761 23.3153L19.5253 23.4668ZM19.5253 17.7449L19.6761 17.8964L19.679 17.8936L19.6816 17.8907L19.5253 17.7449ZM23.324 17.7364L23.1674 17.8818L23.1732 17.888L23.1795 17.8939L23.324 17.7364ZM23.324 18.2443L23.1795 18.0868L23.1763 18.0898L23.1733 18.0928L23.324 18.2443ZM20.1823 18.3459V18.1316H19.9691V18.3459H20.1823ZM20.1823 20.2165H19.9691V20.4308H20.1823V20.2165ZM23.0292 20.3265L22.8726 20.4719L22.8784 20.4781L22.8847 20.484L23.0292 20.3265ZM23.0292 20.8344L22.8847 20.6769L22.8815 20.6799L22.8785 20.6829L23.0292 20.8344ZM20.1823 20.9359V20.7216H19.9691V20.9359H20.1823ZM20.0644 23.4668L19.9193 23.3097L19.9164 23.3125L19.9136 23.3153L20.0644 23.4668ZM19.7949 23.3625C19.7426 23.3625 19.7077 23.347 19.6761 23.3153L19.3746 23.6183C19.4891 23.7333 19.6338 23.7911 19.7949 23.7911V23.3625ZM19.6761 23.3153C19.6446 23.2835 19.6291 23.2484 19.6291 23.1959H19.2026C19.2026 23.3578 19.2602 23.5033 19.3746 23.6183L19.6761 23.3153ZM19.6291 23.1959V18.0158H19.2026V23.1959H19.6291ZM19.6291 18.0158C19.6291 17.9633 19.6446 17.9281 19.6761 17.8964L19.3746 17.5934C19.2602 17.7084 19.2026 17.8539 19.2026 18.0158H19.6291ZM19.6816 17.8907C19.7145 17.8551 19.7479 17.8407 19.7949 17.8407V17.4121C19.6285 17.4121 19.4822 17.4767 19.3691 17.5991L19.6816 17.8907ZM19.7949 17.8407H23.0713V17.4121H19.7949V17.8407ZM23.0713 17.8407C23.1141 17.8407 23.1412 17.8532 23.1674 17.8818L23.4808 17.591C23.3722 17.473 23.2307 17.4121 23.0713 17.4121V17.8407ZM23.1795 17.8939C23.2078 17.9203 23.2203 17.9474 23.2203 17.9904H23.6468C23.6468 17.8302 23.5863 17.688 23.4687 17.5789L23.1795 17.8939ZM23.2203 17.9904C23.2203 18.0333 23.2078 18.0604 23.1795 18.0868L23.4687 18.4018C23.5863 18.2927 23.6468 18.1505 23.6468 17.9904H23.2203ZM23.1733 18.0928C23.1485 18.1176 23.1197 18.1316 23.0713 18.1316V18.5601C23.2252 18.5601 23.3649 18.5064 23.4748 18.3958L23.1733 18.0928ZM23.0713 18.1316H20.1823V18.5601H23.0713V18.1316ZM19.9691 18.3459V20.2165H20.3956V18.3459H19.9691ZM20.1823 20.4308H22.7765V20.0022H20.1823V20.4308ZM22.7765 20.4308C22.8193 20.4308 22.8464 20.4433 22.8726 20.4719L23.186 20.1811C23.0774 20.063 22.9359 20.0022 22.7765 20.0022V20.4308ZM22.8847 20.484C22.913 20.5104 22.9255 20.5375 22.9255 20.5804H23.352C23.352 20.4203 23.2915 20.2781 23.1739 20.169L22.8847 20.484ZM22.9255 20.5804C22.9255 20.6234 22.913 20.6505 22.8847 20.6769L23.1739 20.9919C23.2915 20.8828 23.352 20.7406 23.352 20.5804H22.9255ZM22.8785 20.6829C22.8537 20.7077 22.8249 20.7216 22.7765 20.7216V21.1502C22.9304 21.1502 23.0701 21.0964 23.18 20.9859L22.8785 20.6829ZM22.7765 20.7216H20.1823V21.1502H22.7765V20.7216ZM19.9691 20.9359V23.1959H20.3956V20.9359H19.9691ZM19.9691 23.1959C19.9691 23.2431 19.9548 23.2767 19.9193 23.3097L20.2095 23.6238C20.3313 23.5101 20.3956 23.363 20.3956 23.1959H19.9691ZM19.9136 23.3153C19.8821 23.347 19.8471 23.3625 19.7949 23.3625V23.7911C19.9561 23.7911 20.1008 23.7333 20.2152 23.6183L19.9136 23.3153Z" fill="white"/>
<mask id="mask0_3826_27538" style="mask-type:alpha" maskUnits="userSpaceOnUse" x="0" y="0" width="29" height="34">
<path d="M26.6544 33.2852H2.34559C1.05016 33.2852 0 32.2298 0 30.928V2.6423C0 1.34049 1.05016 0.285156 2.34559 0.285156H18.125L29 11.2137V30.928C29 32.2298 27.9498 33.2852 26.6544 33.2852Z" fill="url(#paint1_linear_3826_27538)"/>
</mask>
<g mask="url(#mask0_3826_27538)">
<path opacity="0.08" d="M-2.92877 22.5717C10.2316 22.5717 20.9003 12.2823 20.9003 -0.410435C20.9003 -13.1031 10.2316 -23.3926 -2.92877 -23.3926C-16.0892 -23.3926 -26.7578 -13.1031 -26.7578 -0.410435C-26.7578 12.2823 -16.0892 22.5717 -2.92877 22.5717Z" fill="url(#paint2_linear_3826_27538)"/>
<path opacity="0.08" d="M-2.92647 14.0011C5.34663 14.0011 12.0533 7.54922 12.0533 -0.409598C12.0533 -8.36842 5.34663 -14.8203 -2.92647 -14.8203C-11.1996 -14.8203 -17.9062 -8.36842 -17.9062 -0.409598C-17.9062 7.54922 -11.1996 14.0011 -2.92647 14.0011Z" fill="url(#paint3_linear_3826_27538)"/>
<g filter="url(#filter0_d_3826_27538)">
<path d="M29 11.2137H20.4706C19.1752 11.2137 18.125 10.1584 18.125 8.85659V0.285156L29 11.2137Z" fill="url(#paint4_linear_3826_27538)"/>
</g>
</g>
<defs>
<filter id="filter0_d_3826_27538" x="-4.875" y="-23.7148" width="60.875" height="60.9277" filterUnits="userSpaceOnUse" color-interpolation-filters="sRGB">
<feFlood flood-opacity="0" result="BackgroundImageFix"/>
<feColorMatrix in="SourceAlpha" type="matrix" values="0 0 0 0 0 0 0 0 0 0 0 0 0 0 0 0 0 0 127 0" result="hardAlpha"/>
<feOffset dx="2" dy="1"/>
<feGaussianBlur stdDeviation="12.5"/>
<feColorMatrix type="matrix" values="0 0 0 0 0 0 0 0 0 0 0 0 0 0 0 0 0 0 0.33 0"/>
<feBlend mode="normal" in2="BackgroundImageFix" result="effect1_dropShadow_3826_27538"/>
<feBlend mode="normal" in="SourceGraphic" in2="effect1_dropShadow_3826_27538" result="shape"/>
</filter>
<linearGradient id="paint0_linear_3826_27538" x1="14.5" y1="0.285156" x2="14.5" y2="33.2852" gradientUnits="userSpaceOnUse">
<stop stop-color="#FF7981"/>
<stop offset="1" stop-color="#E85567"/>
</linearGradient>
<linearGradient id="paint1_linear_3826_27538" x1="14.5" y1="0.285156" x2="14.5" y2="33.2852" gradientUnits="userSpaceOnUse">
<stop stop-color="#FF7981"/>
<stop offset="1" stop-color="#E85567"/>
</linearGradient>
<linearGradient id="paint2_linear_3826_27538" x1="-1.19861" y1="0.379331" x2="6.09027" y2="19.6293" gradientUnits="userSpaceOnUse">
<stop stop-color="white" stop-opacity="0"/>
<stop offset="1" stop-color="white"/>
</linearGradient>
<linearGradient id="paint3_linear_3826_27538" x1="-1.83883" y1="0.085614" x2="2.72288" y2="12.1637" gradientUnits="userSpaceOnUse">
<stop stop-color="white" stop-opacity="0"/>
<stop offset="1" stop-color="white"/>
</linearGradient>
<linearGradient id="paint4_linear_3826_27538" x1="23.5625" y1="0.285156" x2="23.5625" y2="11.2137" gradientUnits="userSpaceOnUse">
<stop stop-color="#D03954"/>
<stop offset="1" stop-color="#C02A3C"/>
</linearGradient>
</defs>
</svg>
