<svg width="57" height="65" viewBox="0 0 57 65" fill="none" xmlns="http://www.w3.org/2000/svg">
<mask id="mask0_3535_115819" style="mask-type:alpha" maskUnits="userSpaceOnUse" x="0" y="0" width="57" height="65">
<path d="M51.7848 64.3516H4.55706C2.04027 64.3516 0 62.3048 0 59.7801V4.92299C0 2.39826 2.04027 0.351562 4.55706 0.351562H35.2137L56.3419 21.5464V59.7801C56.3419 62.3048 54.3016 64.3516 51.7848 64.3516Z" fill="url(#paint0_linear_3535_115819)"/>
</mask>
<g mask="url(#mask0_3535_115819)">
<path d="M51.7848 64.3516H4.55706C2.04027 64.3516 0 62.3048 0 59.7801V4.92299C0 2.39826 2.04027 0.351562 4.55706 0.351562H35.2137L56.3419 21.5464V59.7801C56.3419 62.3048 54.3016 64.3516 51.7848 64.3516Z" fill="url(#paint1_linear_3535_115819)"/>
<g opacity="0.23" filter="url(#filter0_f_3535_115819)">
<g style="mix-blend-mode:darken" opacity="0.23">
<path d="M53.6474 31.3125H3.10547V48.767H53.6474V31.3125Z" fill="#E32E06"/>
</g>
</g>
<path opacity="0.12" fill-rule="evenodd" clip-rule="evenodd" d="M28.1712 46.2743C35.7216 46.2743 41.8424 40.1342 41.8424 32.56C41.8424 24.9858 35.7216 18.8457 28.1712 18.8457C20.6208 18.8457 14.5 24.9858 14.5 32.56C14.5 40.1342 20.6208 46.2743 28.1712 46.2743ZM28.1712 43.5015C22.1474 43.5015 17.2641 38.6028 17.2641 32.56C17.2641 27.0132 21.3785 22.4305 26.7129 21.7155V33.84H29.4472H39.0044C38.3726 39.2798 33.7633 43.5015 28.1712 43.5015ZM29.4472 21.6927V31.0971H38.9816C38.3245 26.1637 34.3903 22.2703 29.4472 21.6927ZM41.221 50.0145V52.508H15.1214V50.0145H41.221ZM41.221 56.2483V58.7418H15.1214V56.2483H41.221Z" fill="white"/>
<path d="M13.3692 45.5245C13.1619 45.5245 12.9874 45.4535 12.8455 45.3111C12.7037 45.1688 12.6328 44.9938 12.6328 44.7858V34.7395C12.6328 34.5315 12.7037 34.3565 12.8455 34.2142C12.9874 34.0611 13.1619 33.9844 13.3692 33.9844H17.1002C18.1366 33.9844 18.982 34.1595 19.6366 34.5097C20.2912 34.8598 20.7602 35.3086 21.044 35.8558C21.3276 36.4029 21.4695 36.9938 21.4695 37.6286C21.4695 38.2634 21.3276 38.8544 21.044 39.4015C20.7602 39.9486 20.2912 40.3975 19.6366 40.7476C18.982 41.0977 18.1366 41.2729 17.1002 41.2729H14.1219V44.7858C14.1219 44.9938 14.0456 45.1688 13.8928 45.3111C13.751 45.4535 13.5765 45.5245 13.3692 45.5245ZM16.9529 39.8612C18.0657 39.8612 18.8457 39.6478 19.293 39.2209C19.7512 38.7941 19.9802 38.2634 19.9802 37.6286C19.9802 36.9938 19.7512 36.4631 19.293 36.0363C18.8457 35.6095 18.0657 35.3961 16.9529 35.3961H14.1219V39.8612H16.9529ZM25.5093 45.5245C25.3019 45.5245 25.1273 45.4535 24.9856 45.3111C24.8438 45.1688 24.7729 44.9938 24.7729 44.7858V34.7395C24.7729 34.5315 24.8438 34.3565 24.9856 34.2142C25.1273 34.0611 25.3019 33.9844 25.5093 33.9844H29.2403C30.2766 33.9844 31.1221 34.1595 31.7767 34.5097C32.4313 34.8598 32.9002 35.3086 33.184 35.8558C33.4676 36.4029 33.6095 36.9938 33.6095 37.6286C33.6095 38.2634 33.4676 38.8544 33.184 39.4015C32.9002 39.9486 32.4313 40.3975 31.7767 40.7476C31.1221 41.0977 30.2766 41.2729 29.2403 41.2729H26.262V44.7858C26.262 44.9938 26.1856 45.1688 26.0329 45.3111C25.8911 45.4535 25.7164 45.5245 25.5093 45.5245ZM29.093 39.8612C30.2058 39.8612 30.9856 39.6478 31.4331 39.2209C31.8913 38.7941 32.1203 38.2634 32.1203 37.6286C32.1203 36.9938 31.8913 36.4631 31.4331 36.0363C30.9856 35.6095 30.2058 35.3961 29.093 35.3961H26.262V39.8612H29.093ZM40.3003 45.5245C40.0929 45.5245 39.9183 45.4535 39.7766 45.3111C39.6347 45.1688 39.5639 44.9938 39.5639 44.7858V35.3797H36.2256C36.0293 35.3797 35.8656 35.314 35.7347 35.1827C35.6038 35.0514 35.5384 34.8872 35.5384 34.6902C35.5384 34.4933 35.6038 34.3291 35.7347 34.1978C35.8656 34.0554 36.0293 33.9844 36.2256 33.9844H44.3749C44.5713 33.9844 44.7349 34.0554 44.8658 34.1978C45.0075 34.3291 45.0786 34.4933 45.0786 34.6902C45.0786 34.8872 45.0075 35.0514 44.8658 35.1827C44.7349 35.314 44.5713 35.3797 44.3749 35.3797H41.053V44.7858C41.053 44.9938 40.9766 45.1688 40.8239 45.3111C40.682 45.4535 40.5074 45.5245 40.3003 45.5245Z" fill="white"/>
<path d="M12.8458 45.3107L13.1387 45.0169L12.8458 45.3107ZM12.8458 34.2138L13.1387 34.5076L13.1441 34.5022L13.1493 34.4966L12.8458 34.2138ZM19.6368 34.5092L19.8318 34.1425L19.6368 34.5092ZM21.0442 35.8553L20.6766 36.0471L21.0442 35.8553ZM21.0442 39.4011L20.6766 39.2093L21.0442 39.4011ZM19.6368 40.7472L19.8318 41.1139L19.6368 40.7472ZM14.1222 41.2725V40.8569H13.7079V41.2725H14.1222ZM13.8931 45.3107L13.6112 45.0061L13.6055 45.0115L13.6001 45.0169L13.8931 45.3107ZM19.2932 39.2205L19.0113 38.9159L19.0094 38.9178L19.0076 38.9194L19.2932 39.2205ZM19.2932 36.0359L19.0076 36.337L19.0094 36.3386L19.0113 36.3405L19.2932 36.0359ZM14.1222 35.3957V34.9801H13.7079V35.3957H14.1222ZM14.1222 39.8607H13.7079V40.2763H14.1222V39.8607ZM13.3694 45.1085C13.2679 45.1085 13.2 45.0784 13.1387 45.0169L12.5528 45.6045C12.7752 45.8277 13.0564 45.9397 13.3694 45.9397V45.1085ZM13.1387 45.0169C13.0774 44.9554 13.0473 44.8872 13.0473 44.7854H12.2188C12.2188 45.0994 12.3304 45.3816 12.5528 45.6045L13.1387 45.0169ZM13.0473 44.7854V34.7391H12.2188V44.7854H13.0473ZM13.0473 34.7391C13.0473 34.6372 13.0774 34.5691 13.1387 34.5076L12.5528 33.9199C12.3304 34.1429 12.2188 34.4251 12.2188 34.7391H13.0473ZM13.1493 34.4966C13.2133 34.4276 13.278 34.3995 13.3694 34.3995V33.5684C13.0462 33.5684 12.7619 33.6937 12.5422 33.931L13.1493 34.4966ZM13.3694 34.3995H17.1004V33.5684H13.3694V34.3995ZM17.1004 34.3995C18.0943 34.3995 18.8664 34.568 19.4419 34.876L19.8318 34.1425C19.0981 33.75 18.1793 33.5684 17.1004 33.5684V34.3995ZM19.4419 34.876C20.0381 35.195 20.4389 35.5885 20.6766 36.0471L21.4117 35.6635C21.0821 35.0277 20.5447 34.524 19.8318 34.1425L19.4419 34.876ZM20.6766 36.0471C20.9286 36.5333 21.0554 37.0582 21.0554 37.6282H21.884C21.884 36.9288 21.7269 36.2717 21.4117 35.6635L20.6766 36.0471ZM21.0554 37.6282C21.0554 38.1982 20.9286 38.7231 20.6766 39.2093L21.4117 39.5929C21.7269 38.9847 21.884 38.3276 21.884 37.6282H21.0554ZM20.6766 39.2093C20.4389 39.6679 20.0381 40.0615 19.4419 40.3804L19.8318 41.1139C20.5447 40.7324 21.0821 40.2287 21.4117 39.5929L20.6766 39.2093ZM19.4419 40.3804C18.8664 40.6884 18.0943 40.8569 17.1004 40.8569V41.688C18.1793 41.688 19.0981 41.5064 19.8318 41.1139L19.4419 40.3804ZM17.1004 40.8569H14.1222V41.688H17.1004V40.8569ZM13.7079 41.2725V44.7854H14.5364V41.2725H13.7079ZM13.7079 44.7854C13.7079 44.877 13.68 44.9421 13.6112 45.0061L14.175 45.6153C14.4116 45.3949 14.5364 45.1096 14.5364 44.7854H13.7079ZM13.6001 45.0169C13.5388 45.0784 13.4709 45.1085 13.3694 45.1085V45.9397C13.6824 45.9397 13.9636 45.8277 14.186 45.6045L13.6001 45.0169ZM16.9531 40.2763C18.0949 40.2763 19.0124 40.0621 19.5787 39.5216L19.0076 38.9194C18.6794 39.2326 18.0369 39.4451 16.9531 39.4451V40.2763ZM19.5751 39.5251C20.1188 39.0185 20.3947 38.3769 20.3947 37.6282H19.5662C19.5662 38.1489 19.3839 38.5689 19.0113 38.9159L19.5751 39.5251ZM20.3947 37.6282C20.3947 36.8795 20.1188 36.2379 19.5751 35.7313L19.0113 36.3405C19.3839 36.6875 19.5662 37.1075 19.5662 37.6282H20.3947ZM19.5787 35.7348C19.0124 35.1943 18.0949 34.9801 16.9531 34.9801V35.8113C18.0369 35.8113 18.6794 36.0238 19.0076 36.337L19.5787 35.7348ZM16.9531 34.9801H14.1222V35.8113H16.9531V34.9801ZM13.7079 35.3957V39.8607H14.5364V35.3957H13.7079ZM14.1222 40.2763H16.9531V39.4451H14.1222V40.2763ZM24.9859 45.3107L25.2788 45.0169L24.9859 45.3107ZM24.9859 34.2138L25.2788 34.5076L25.2841 34.5022L25.2893 34.4966L24.9859 34.2138ZM31.7769 34.5092L31.9718 34.1425L31.7769 34.5092ZM33.1842 35.8553L32.8166 36.0471L33.1842 35.8553ZM33.1842 39.4011L32.8166 39.2093L33.1842 39.4011ZM31.7769 40.7472L31.9718 41.1139L31.7769 40.7472ZM26.2623 41.2725V40.8569H25.848V41.2725H26.2623ZM26.0332 45.3107L25.7512 45.0061L25.7456 45.0115L25.7401 45.0169L26.0332 45.3107ZM31.4333 39.2205L31.1514 38.9159L31.1495 38.9178L31.1476 38.9194L31.4333 39.2205ZM31.4333 36.0359L31.1476 36.337L31.1495 36.3386L31.1514 36.3405L31.4333 36.0359ZM26.2623 35.3957V34.9801H25.848V35.3957H26.2623ZM26.2623 39.8607H25.848V40.2763H26.2623V39.8607ZM25.5095 45.1085C25.408 45.1085 25.3401 45.0784 25.2788 45.0169L24.6928 45.6045C24.9152 45.8277 25.1963 45.9397 25.5095 45.9397V45.1085ZM25.2788 45.0169C25.2174 44.9554 25.1874 44.8872 25.1874 44.7854H24.3589C24.3589 45.0994 24.4705 45.3816 24.6928 45.6045L25.2788 45.0169ZM25.1874 44.7854V34.7391H24.3589V44.7854H25.1874ZM25.1874 34.7391C25.1874 34.6372 25.2174 34.5691 25.2788 34.5076L24.6928 33.9199C24.4705 34.1429 24.3589 34.4251 24.3589 34.7391H25.1874ZM25.2893 34.4966C25.3533 34.4276 25.4182 34.3995 25.5095 34.3995V33.5684C25.1862 33.5684 24.902 33.6937 24.6822 33.931L25.2893 34.4966ZM25.5095 34.3995H29.2405V33.5684H25.5095V34.3995ZM29.2405 34.3995C30.2344 34.3995 31.0064 34.568 31.582 34.876L31.9718 34.1425C31.2382 33.75 30.3193 33.5684 29.2405 33.5684V34.3995ZM31.582 34.876C32.1782 35.195 32.579 35.5885 32.8166 36.0471L33.5517 35.6635C33.2221 35.0277 32.6846 34.524 31.9718 34.1425L31.582 34.876ZM32.8166 36.0471C33.0686 36.5333 33.1954 37.0582 33.1954 37.6282H34.024C34.024 36.9288 33.867 36.2717 33.5517 35.6635L32.8166 36.0471ZM33.1954 37.6282C33.1954 38.1982 33.0686 38.7231 32.8166 39.2093L33.5517 39.5929C33.867 38.9847 34.024 38.3276 34.024 37.6282H33.1954ZM32.8166 39.2093C32.579 39.6679 32.1782 40.0615 31.582 40.3804L31.9718 41.1139C32.6846 40.7324 33.2221 40.2287 33.5517 39.5929L32.8166 39.2093ZM31.582 40.3804C31.0064 40.6884 30.2344 40.8569 29.2405 40.8569V41.688C30.3193 41.688 31.2382 41.5064 31.9718 41.1139L31.582 40.3804ZM29.2405 40.8569H26.2623V41.688H29.2405V40.8569ZM25.848 41.2725V44.7854H26.6765V41.2725H25.848ZM25.848 44.7854C25.848 44.877 25.82 44.9421 25.7512 45.0061L26.3151 45.6153C26.5516 45.3949 26.6765 45.1096 26.6765 44.7854H25.848ZM25.7401 45.0169C25.6789 45.0784 25.611 45.1085 25.5095 45.1085V45.9397C25.8225 45.9397 26.1036 45.8277 26.3261 45.6045L25.7401 45.0169ZM29.0932 40.2763C30.235 40.2763 31.1524 40.0621 31.7187 39.5216L31.1476 38.9194C30.8195 39.2326 30.177 39.4451 29.0932 39.4451V40.2763ZM31.7152 39.5251C32.2589 39.0185 32.5348 38.3769 32.5348 37.6282H31.7063C31.7063 38.1489 31.524 38.5689 31.1514 38.9159L31.7152 39.5251ZM32.5348 37.6282C32.5348 36.8795 32.2589 36.2379 31.7152 35.7313L31.1514 36.3405C31.524 36.6875 31.7063 37.1075 31.7063 37.6282H32.5348ZM31.7187 35.7348C31.1524 35.1943 30.235 34.9801 29.0932 34.9801V35.8113C30.177 35.8113 30.8195 36.0238 31.1476 36.337L31.7187 35.7348ZM29.0932 34.9801H26.2623V35.8113H29.0932V34.9801ZM25.848 35.3957V39.8607H26.6765V35.3957H25.848ZM26.2623 40.2763H29.0932V39.4451H26.2623V40.2763ZM39.7768 45.3107L39.484 45.6045L39.7768 45.3107ZM39.5641 35.3793H39.9784V34.9637H39.5641V35.3793ZM35.7349 35.1823L35.442 35.4761L35.7349 35.1823ZM35.7349 34.1973L36.0278 34.4912L36.0336 34.4853L36.0392 34.4793L35.7349 34.1973ZM44.8661 34.1973L44.5616 34.4793L44.5727 34.4914L44.585 34.5028L44.8661 34.1973ZM44.8661 35.1823L44.585 34.8768L44.579 34.8826L44.5732 34.8885L44.8661 35.1823ZM41.0532 35.3793V34.9637H40.639V35.3793H41.0532ZM40.8241 45.3107L40.5422 45.0061L40.5366 45.0115L40.5312 45.0169L40.8241 45.3107ZM40.3005 45.1085C40.199 45.1085 40.1311 45.0784 40.0697 45.0169L39.484 45.6045C39.7062 45.8277 39.9875 45.9397 40.3005 45.9397V45.1085ZM40.0697 45.0169C40.0084 44.9554 39.9784 44.8872 39.9784 44.7854H39.1498C39.1498 45.0994 39.2615 45.3816 39.484 45.6045L40.0697 45.0169ZM39.9784 44.7854V35.3793H39.1498V44.7854H39.9784ZM39.5641 34.9637H36.2259V35.7949H39.5641V34.9637ZM36.2259 34.9637C36.132 34.9637 36.0759 34.9367 36.0278 34.8885L35.442 35.4761C35.6556 35.6905 35.927 35.7949 36.2259 35.7949V34.9637ZM36.0278 34.8885C35.9798 34.84 35.9529 34.7839 35.9529 34.6898H35.1243C35.1243 34.9897 35.2283 35.2619 35.442 35.4761L36.0278 34.8885ZM35.9529 34.6898C35.9529 34.5957 35.9798 34.5396 36.0278 34.4912L35.442 33.9035C35.2283 34.1178 35.1243 34.39 35.1243 34.6898H35.9529ZM36.0392 34.4793C36.0902 34.4238 36.1428 34.3995 36.2259 34.3995V33.5684C35.9162 33.5684 35.6413 33.6864 35.4304 33.9154L36.0392 34.4793ZM36.2259 34.3995H44.3751V33.5684H36.2259V34.3995ZM44.3751 34.3995C44.4582 34.3995 44.5106 34.4238 44.5616 34.4793L45.1703 33.9154C44.9595 33.6864 44.6848 33.5684 44.3751 33.5684V34.3995ZM44.585 34.5028C44.6403 34.5539 44.6645 34.6065 44.6645 34.6898H45.4931C45.4931 34.3792 45.3754 34.1034 45.1469 33.8919L44.585 34.5028ZM44.6645 34.6898C44.6645 34.7731 44.6403 34.8257 44.585 34.8768L45.1469 35.4877C45.3754 35.2762 45.4931 35.0005 45.4931 34.6898H44.6645ZM44.5732 34.8885C44.5249 34.9367 44.469 34.9637 44.3751 34.9637V35.7949C44.674 35.7949 44.9452 35.6905 45.1589 35.4761L44.5732 34.8885ZM44.3751 34.9637H41.0532V35.7949H44.3751V34.9637ZM40.639 35.3793V44.7854H41.4675V35.3793H40.639ZM40.639 44.7854C40.639 44.877 40.611 44.9421 40.5422 45.0061L41.1061 45.6153C41.3426 45.3949 41.4675 45.1096 41.4675 44.7854H40.639ZM40.5312 45.0169C40.4699 45.0784 40.402 45.1085 40.3005 45.1085V45.9397C40.6135 45.9397 40.8946 45.8277 41.117 45.6045L40.5312 45.0169Z" fill="white"/>
<mask id="mask1_3535_115819" style="mask-type:alpha" maskUnits="userSpaceOnUse" x="0" y="0" width="57" height="65">
<path d="M51.7848 64.3516H4.55706C2.04027 64.3516 0 62.3048 0 59.7801V4.92299C0 2.39826 2.04027 0.351562 4.55706 0.351562H35.2137L56.3419 21.5464V59.7801C56.3419 62.3048 54.3016 64.3516 51.7848 64.3516Z" fill="url(#paint2_linear_3535_115819)"/>
</mask>
<g mask="url(#mask1_3535_115819)">
<path opacity="0.05" d="M-3.00515 42.3265C22.5632 42.3265 43.2905 22.3711 43.2905 -2.24498C43.2905 -26.8611 22.5632 -46.8164 -3.00515 -46.8164C-28.5735 -46.8164 -49.3008 -26.8611 -49.3008 -2.24498C-49.3008 22.3711 -28.5735 42.3265 -3.00515 42.3265Z" fill="url(#paint3_linear_3535_115819)"/>
<path opacity="0.07" d="M-3.00631 25.7027C13.0669 25.7027 26.0968 13.19 26.0968 -2.24531C26.0968 -17.6806 13.0669 -30.1934 -3.00631 -30.1934C-19.0795 -30.1934 -32.1094 -17.6806 -32.1094 -2.24531C-32.1094 13.19 -19.0795 25.7027 -3.00631 25.7027Z" fill="url(#paint4_linear_3535_115819)"/>
<g filter="url(#filter1_d_3535_115819)">
<path d="M56.343 21.5464H39.7719C37.2552 21.5464 35.2148 19.4997 35.2148 16.9749V0.351562L56.343 21.5464Z" fill="url(#paint5_linear_3535_115819)"/>
</g>
</g>
</g>
<defs>
<filter id="filter0_f_3535_115819" x="-35.8945" y="-7.6875" width="128.543" height="95.4551" filterUnits="userSpaceOnUse" color-interpolation-filters="sRGB">
<feFlood flood-opacity="0" result="BackgroundImageFix"/>
<feBlend mode="normal" in="SourceGraphic" in2="BackgroundImageFix" result="shape"/>
<feGaussianBlur stdDeviation="19.5" result="effect1_foregroundBlur_3535_115819"/>
</filter>
<filter id="filter1_d_3535_115819" x="12.2148" y="-23.6484" width="71.1289" height="71.1953" filterUnits="userSpaceOnUse" color-interpolation-filters="sRGB">
<feFlood flood-opacity="0" result="BackgroundImageFix"/>
<feColorMatrix in="SourceAlpha" type="matrix" values="0 0 0 0 0 0 0 0 0 0 0 0 0 0 0 0 0 0 127 0" result="hardAlpha"/>
<feOffset dx="2" dy="1"/>
<feGaussianBlur stdDeviation="12.5"/>
<feColorMatrix type="matrix" values="0 0 0 0 0 0 0 0 0 0 0 0 0 0 0 0 0 0 0.33 0"/>
<feBlend mode="normal" in2="BackgroundImageFix" result="effect1_dropShadow_3535_115819"/>
<feBlend mode="normal" in="SourceGraphic" in2="effect1_dropShadow_3535_115819" result="shape"/>
</filter>
<linearGradient id="paint0_linear_3535_115819" x1="28.1709" y1="0.351562" x2="28.1709" y2="64.3516" gradientUnits="userSpaceOnUse">
<stop stop-color="#FF7979"/>
<stop offset="1" stop-color="#E85555"/>
</linearGradient>
<linearGradient id="paint1_linear_3535_115819" x1="28.1709" y1="0.351562" x2="28.1709" y2="64.3516" gradientUnits="userSpaceOnUse">
<stop stop-color="#FF8777"/>
<stop offset="1" stop-color="#F0695F"/>
</linearGradient>
<linearGradient id="paint2_linear_3535_115819" x1="28.1709" y1="0.351562" x2="28.1709" y2="64.3516" gradientUnits="userSpaceOnUse">
<stop stop-color="#FF8777"/>
<stop offset="1" stop-color="#F0695F"/>
</linearGradient>
<linearGradient id="paint3_linear_3535_115819" x1="0.356241" y1="-0.713315" x2="14.4735" y2="36.6365" gradientUnits="userSpaceOnUse">
<stop stop-color="white" stop-opacity="0"/>
<stop offset="1" stop-color="white"/>
</linearGradient>
<linearGradient id="paint4_linear_3535_115819" x1="-0.893217" y1="-1.2849" x2="7.94202" y2="22.1497" gradientUnits="userSpaceOnUse">
<stop stop-color="white" stop-opacity="0"/>
<stop offset="1" stop-color="white"/>
</linearGradient>
<linearGradient id="paint5_linear_3535_115819" x1="45.7789" y1="0.351562" x2="45.7789" y2="21.5464" gradientUnits="userSpaceOnUse">
<stop stop-color="#DA5D4C"/>
<stop offset="1" stop-color="#E32900"/>
</linearGradient>
</defs>
</svg>
