<svg width="29" height="33" viewBox="0 0 29 33" fill="none" xmlns="http://www.w3.org/2000/svg">
<g clip-path="url(#clip0_105_768)">
<mask id="mask0_105_768" style="mask-type:alpha" maskUnits="userSpaceOnUse" x="0" y="0" width="29" height="33">
<path d="M26.6544 33H2.34559C1.05016 33 0 31.9446 0 30.6429V2.35714C0 1.05533 1.05016 0 2.34559 0H18.125L29 10.9286V30.6429C29 31.9446 27.9498 33 26.6544 33Z" fill="url(#paint0_linear_105_768)"/>
</mask>
<g mask="url(#mask0_105_768)">
<path d="M26.6544 33H2.34559C1.05016 33 0 31.9446 0 30.6429V2.35714C0 1.05533 1.05016 0 2.34559 0H18.125L29 10.9286V30.6429C29 31.9446 27.9498 33 26.6544 33Z" fill="url(#paint1_linear_105_768)"/>
<path opacity="0.12" fill-rule="evenodd" clip-rule="evenodd" d="M21.2169 14.8926H7.78308V13.6069H21.2169V14.8926ZM21.2169 18.1069H7.78308V16.8212H21.2169V18.1069ZM7.78308 21.3212H21.2169V20.0355H7.78308V21.3212ZM21.2169 24.5355H7.78308V23.2498H21.2169V24.5355ZM7.78308 27.7498H21.2169V26.4641H7.78308V27.7498Z" fill="white"/>
<mask id="mask1_105_768" style="mask-type:alpha" maskUnits="userSpaceOnUse" x="0" y="0" width="29" height="33">
<path d="M26.6544 33H2.34559C1.05016 33 0 31.9446 0 30.6429V2.35714C0 1.05533 1.05016 0 2.34559 0H18.125L29 10.9286V30.6429C29 31.9446 27.9498 33 26.6544 33Z" fill="url(#paint2_linear_105_768)"/>
</mask>
<g mask="url(#mask1_105_768)">
<path opacity="0.08" d="M-2.93194 22.2856C10.2285 22.2856 20.8971 11.9961 20.8971 -0.696568C20.8971 -13.3893 10.2285 -23.6787 -2.93194 -23.6787C-16.0924 -23.6787 -26.761 -13.3893 -26.761 -0.696568C-26.761 11.9961 -16.0924 22.2856 -2.93194 22.2856Z" fill="url(#paint3_linear_105_768)"/>
<path opacity="0.08" d="M-2.93196 13.714C5.34114 13.714 12.0478 7.26211 12.0478 -0.696708C12.0478 -8.65552 5.34114 -15.1074 -2.93196 -15.1074C-11.2051 -15.1074 -17.9117 -8.65552 -17.9117 -0.696708C-17.9117 7.26211 -11.2051 13.714 -2.93196 13.714Z" fill="url(#paint4_linear_105_768)"/>
<g filter="url(#filter0_d_105_768)">
<path d="M29 10.9286H20.4706C19.1752 10.9286 18.125 9.87325 18.125 8.57143V0L29 10.9286Z" fill="url(#paint5_linear_105_768)"/>
</g>
</g>
<path d="M5.323 20C5.155 20 5.005 19.949 4.873 19.847C4.741 19.739 4.675 19.607 4.675 19.451V14.249C4.675 14.093 4.726 13.964 4.828 13.862C4.936 13.754 5.068 13.7 5.224 13.7H7.816C8.128 13.7 8.419 13.784 8.689 13.952C8.965 14.114 9.187 14.342 9.355 14.636C9.523 14.924 9.607 15.257 9.607 15.635C9.607 15.863 9.559 16.085 9.463 16.301C9.373 16.517 9.247 16.712 9.085 16.886C8.929 17.06 8.752 17.195 8.554 17.291L8.563 17.084C8.731 17.174 8.869 17.282 8.977 17.408C9.091 17.528 9.178 17.66 9.238 17.804C9.304 17.942 9.343 18.092 9.355 18.254C9.379 18.404 9.394 18.536 9.4 18.65C9.412 18.764 9.43 18.86 9.454 18.938C9.484 19.016 9.538 19.076 9.616 19.118C9.748 19.196 9.829 19.31 9.859 19.46C9.895 19.604 9.862 19.733 9.76 19.847C9.694 19.925 9.61 19.976 9.508 20C9.406 20.018 9.304 20.018 9.202 20C9.1 19.976 9.016 19.946 8.95 19.91C8.848 19.85 8.746 19.763 8.644 19.649C8.542 19.529 8.458 19.37 8.392 19.172C8.332 18.974 8.302 18.719 8.302 18.407C8.302 18.305 8.284 18.212 8.248 18.128C8.212 18.038 8.161 17.963 8.095 17.903C8.029 17.837 7.945 17.789 7.843 17.759C7.741 17.723 7.621 17.705 7.483 17.705H5.665L5.8 17.498V19.451C5.8 19.607 5.758 19.739 5.674 19.847C5.59 19.949 5.473 20 5.323 20ZM5.674 16.778H7.771C7.879 16.778 7.984 16.73 8.086 16.634C8.188 16.532 8.272 16.397 8.338 16.229C8.404 16.055 8.437 15.866 8.437 15.662C8.437 15.398 8.365 15.179 8.221 15.005C8.083 14.825 7.933 14.735 7.771 14.735H5.692L5.8 14.447V16.994L5.674 16.778ZM14.0667 15.113L12.1227 19.685C12.0807 19.799 12.0147 19.889 11.9247 19.955C11.8407 20.015 11.7477 20.045 11.6457 20.045C11.4837 20.045 11.3637 20 11.2857 19.91C11.2077 19.82 11.1687 19.709 11.1687 19.577C11.1687 19.523 11.1777 19.466 11.1957 19.406L13.4367 14.024C13.4847 13.904 13.5567 13.811 13.6527 13.745C13.7547 13.679 13.8627 13.652 13.9767 13.664C14.0847 13.664 14.1837 13.697 14.2737 13.763C14.3697 13.823 14.4387 13.91 14.4807 14.024L16.6947 19.298C16.7247 19.376 16.7397 19.448 16.7397 19.514C16.7397 19.676 16.6857 19.805 16.5777 19.901C16.4757 19.997 16.3617 20.045 16.2357 20.045C16.1277 20.045 16.0287 20.012 15.9387 19.946C15.8547 19.88 15.7887 19.79 15.7407 19.676L13.8057 15.167L14.0667 15.113ZM12.4017 18.587L12.8967 17.552H15.3267L15.4977 18.587H12.4017ZM19.0498 20C18.8818 20 18.7318 19.949 18.5998 19.847C18.4678 19.739 18.4018 19.607 18.4018 19.451V14.249C18.4018 14.093 18.4528 13.964 18.5548 13.862C18.6628 13.754 18.7948 13.7 18.9508 13.7H21.5428C21.8548 13.7 22.1458 13.784 22.4158 13.952C22.6918 14.114 22.9138 14.342 23.0818 14.636C23.2498 14.924 23.3338 15.257 23.3338 15.635C23.3338 15.863 23.2858 16.085 23.1898 16.301C23.0998 16.517 22.9738 16.712 22.8118 16.886C22.6558 17.06 22.4788 17.195 22.2808 17.291L22.2898 17.084C22.4578 17.174 22.5958 17.282 22.7038 17.408C22.8178 17.528 22.9048 17.66 22.9648 17.804C23.0308 17.942 23.0698 18.092 23.0818 18.254C23.1058 18.404 23.1208 18.536 23.1268 18.65C23.1388 18.764 23.1568 18.86 23.1808 18.938C23.2108 19.016 23.2648 19.076 23.3428 19.118C23.4748 19.196 23.5558 19.31 23.5858 19.46C23.6218 19.604 23.5888 19.733 23.4868 19.847C23.4208 19.925 23.3368 19.976 23.2348 20C23.1328 20.018 23.0308 20.018 22.9288 20C22.8268 19.976 22.7428 19.946 22.6768 19.91C22.5748 19.85 22.4728 19.763 22.3708 19.649C22.2688 19.529 22.1848 19.37 22.1188 19.172C22.0588 18.974 22.0288 18.719 22.0288 18.407C22.0288 18.305 22.0108 18.212 21.9748 18.128C21.9388 18.038 21.8878 17.963 21.8218 17.903C21.7558 17.837 21.6718 17.789 21.5698 17.759C21.4678 17.723 21.3478 17.705 21.2098 17.705H19.3918L19.5268 17.498V19.451C19.5268 19.607 19.4848 19.739 19.4008 19.847C19.3168 19.949 19.1998 20 19.0498 20ZM19.4008 16.778H21.4978C21.6058 16.778 21.7108 16.73 21.8128 16.634C21.9148 16.532 21.9988 16.397 22.0648 16.229C22.1308 16.055 22.1638 15.866 22.1638 15.662C22.1638 15.398 22.0918 15.179 21.9478 15.005C21.8098 14.825 21.6598 14.735 21.4978 14.735H19.4188L19.5268 14.447V16.994L19.4008 16.778Z" fill="white"/>
</g>
</g>
<defs>
<filter id="filter0_d_105_768" x="-4.875" y="-24" width="60.875" height="60.9287" filterUnits="userSpaceOnUse" color-interpolation-filters="sRGB">
<feFlood flood-opacity="0" result="BackgroundImageFix"/>
<feColorMatrix in="SourceAlpha" type="matrix" values="0 0 0 0 0 0 0 0 0 0 0 0 0 0 0 0 0 0 127 0" result="hardAlpha"/>
<feOffset dx="2" dy="1"/>
<feGaussianBlur stdDeviation="12.5"/>
<feColorMatrix type="matrix" values="0 0 0 0 0 0 0 0 0 0 0 0 0 0 0 0 0 0 0.33 0"/>
<feBlend mode="normal" in2="BackgroundImageFix" result="effect1_dropShadow_105_768"/>
<feBlend mode="normal" in="SourceGraphic" in2="effect1_dropShadow_105_768" result="shape"/>
</filter>
<linearGradient id="paint0_linear_105_768" x1="14.5" y1="0" x2="14.5" y2="33" gradientUnits="userSpaceOnUse">
<stop stop-color="#FF7979"/>
<stop offset="1" stop-color="#E85555"/>
</linearGradient>
<linearGradient id="paint1_linear_105_768" x1="14.5" y1="0" x2="14.5" y2="33" gradientUnits="userSpaceOnUse">
<stop stop-color="#663332" stop-opacity="0.8"/>
<stop offset="1" stop-color="#663332"/>
</linearGradient>
<linearGradient id="paint2_linear_105_768" x1="14.5" y1="0" x2="14.5" y2="33" gradientUnits="userSpaceOnUse">
<stop stop-color="#663332"/>
<stop offset="1" stop-color="#492424"/>
</linearGradient>
<linearGradient id="paint3_linear_105_768" x1="-1.20178" y1="0.0931981" x2="6.0871" y2="19.3432" gradientUnits="userSpaceOnUse">
<stop stop-color="white" stop-opacity="0"/>
<stop offset="1" stop-color="white"/>
</linearGradient>
<linearGradient id="paint4_linear_105_768" x1="-1.84432" y1="-0.201495" x2="2.71739" y2="11.8766" gradientUnits="userSpaceOnUse">
<stop stop-color="white" stop-opacity="0"/>
<stop offset="1" stop-color="white"/>
</linearGradient>
<linearGradient id="paint5_linear_105_768" x1="23.5625" y1="0" x2="23.5625" y2="10.9286" gradientUnits="userSpaceOnUse">
<stop stop-color="#3A3130" stop-opacity="0.8"/>
<stop offset="1" stop-color="#3A3130"/>
</linearGradient>
<clipPath id="clip0_105_768">
<rect width="29" height="33" fill="white"/>
</clipPath>
</defs>
</svg>
