<svg width="29" height="33" viewBox="0 0 29 33" fill="none" xmlns="http://www.w3.org/2000/svg">
<g clip-path="url(#clip0_105_772)">
<mask id="mask0_105_772" style="mask-type:alpha" maskUnits="userSpaceOnUse" x="0" y="0" width="29" height="33">
<path d="M26.6544 33H2.34559C1.05016 33 0 31.9446 0 30.6429V2.35714C0 1.05533 1.05016 0 2.34559 0H18.125L29 10.9286V30.6429C29 31.9446 27.9498 33 26.6544 33Z" fill="url(#paint0_linear_105_772)"/>
</mask>
<g mask="url(#mask0_105_772)">
<path d="M26.6544 33H2.34559C1.05016 33 0 31.9446 0 30.6429V2.35714C0 1.05533 1.05016 0 2.34559 0H18.125L29 10.9286V30.6429C29 31.9446 27.9498 33 26.6544 33Z" fill="url(#paint1_linear_105_772)"/>
<path opacity="0.12" fill-rule="evenodd" clip-rule="evenodd" d="M21.2169 14.8926H7.78308V13.6069H21.2169V14.8926ZM21.2169 18.1069H7.78308V16.8212H21.2169V18.1069ZM7.78308 21.3212H21.2169V20.0355H7.78308V21.3212ZM21.2169 24.5355H7.78308V23.2498H21.2169V24.5355ZM7.78308 27.7498H21.2169V26.4641H7.78308V27.7498Z" fill="white"/>
<mask id="mask1_105_772" style="mask-type:alpha" maskUnits="userSpaceOnUse" x="0" y="0" width="29" height="33">
<path d="M26.6544 33H2.34559C1.05016 33 0 31.9446 0 30.6429V2.35714C0 1.05533 1.05016 0 2.34559 0H18.125L29 10.9286V30.6429C29 31.9446 27.9498 33 26.6544 33Z" fill="url(#paint2_linear_105_772)"/>
</mask>
<g mask="url(#mask1_105_772)">
<path opacity="0.08" d="M-2.93194 22.2856C10.2285 22.2856 20.8971 11.9961 20.8971 -0.696568C20.8971 -13.3893 10.2285 -23.6787 -2.93194 -23.6787C-16.0924 -23.6787 -26.761 -13.3893 -26.761 -0.696568C-26.761 11.9961 -16.0924 22.2856 -2.93194 22.2856Z" fill="url(#paint3_linear_105_772)"/>
<path opacity="0.08" d="M-2.93196 13.714C5.34114 13.714 12.0478 7.26211 12.0478 -0.696708C12.0478 -8.65552 5.34114 -15.1074 -2.93196 -15.1074C-11.2051 -15.1074 -17.9117 -8.65552 -17.9117 -0.696708C-17.9117 7.26211 -11.2051 13.714 -2.93196 13.714Z" fill="url(#paint4_linear_105_772)"/>
<g filter="url(#filter0_d_105_772)">
<path d="M29 10.9286H20.4706C19.1752 10.9286 18.125 9.87325 18.125 8.57143V0L29 10.9286Z" fill="url(#paint5_linear_105_772)"/>
</g>
</g>
<path d="M3.062 19.991C2.888 19.991 2.753 19.946 2.657 19.856C2.567 19.76 2.522 19.625 2.522 19.451V19.298C2.522 19.124 2.567 18.992 2.657 18.902C2.753 18.806 2.888 18.758 3.062 18.758H3.179C3.353 18.758 3.485 18.806 3.575 18.902C3.671 18.992 3.719 19.124 3.719 19.298V19.451C3.719 19.625 3.671 19.76 3.575 19.856C3.485 19.946 3.353 19.991 3.179 19.991H3.062ZM12.8992 13.673C13.0372 13.673 13.1692 13.727 13.2952 13.835C13.4212 13.937 13.4842 14.078 13.4842 14.258C13.4842 14.312 13.4752 14.372 13.4572 14.438L11.6842 19.658C11.6482 19.766 11.5822 19.85 11.4862 19.91C11.3962 19.964 11.3002 19.994 11.1982 20C11.0962 20 10.9942 19.97 10.8922 19.91C10.7962 19.85 10.7212 19.763 10.6672 19.649L9.33521 16.625L9.41621 16.679L8.10221 19.649C8.04821 19.763 7.97021 19.85 7.86821 19.91C7.77221 19.97 7.67321 20 7.57121 20C7.47521 19.994 7.37921 19.964 7.28321 19.91C7.18721 19.85 7.12121 19.766 7.08521 19.658L5.31221 14.438C5.29421 14.372 5.28521 14.312 5.28521 14.258C5.28521 14.078 5.34821 13.937 5.47421 13.835C5.60621 13.727 5.74121 13.673 5.87921 13.673C5.99321 13.673 6.09821 13.703 6.19421 13.763C6.29621 13.823 6.36521 13.91 6.40121 14.024L7.83221 18.362L7.63421 18.353L8.91221 15.284C8.96021 15.176 9.02921 15.092 9.11921 15.032C9.20921 14.966 9.31121 14.936 9.42521 14.942C9.53921 14.936 9.64121 14.966 9.73121 15.032C9.82121 15.092 9.88721 15.176 9.92921 15.284L11.0992 18.218L10.9552 18.308L12.3682 14.024C12.4042 13.91 12.4732 13.823 12.5752 13.763C12.6772 13.703 12.7852 13.673 12.8992 13.673ZM17.3173 15.113L15.3733 19.685C15.3313 19.799 15.2653 19.889 15.1753 19.955C15.0913 20.015 14.9983 20.045 14.8963 20.045C14.7343 20.045 14.6143 20 14.5363 19.91C14.4583 19.82 14.4193 19.709 14.4193 19.577C14.4193 19.523 14.4283 19.466 14.4463 19.406L16.6873 14.024C16.7353 13.904 16.8073 13.811 16.9033 13.745C17.0053 13.679 17.1133 13.652 17.2273 13.664C17.3353 13.664 17.4343 13.697 17.5243 13.763C17.6203 13.823 17.6893 13.91 17.7313 14.024L19.9453 19.298C19.9753 19.376 19.9903 19.448 19.9903 19.514C19.9903 19.676 19.9363 19.805 19.8283 19.901C19.7263 19.997 19.6123 20.045 19.4863 20.045C19.3783 20.045 19.2793 20.012 19.1893 19.946C19.1053 19.88 19.0393 19.79 18.9913 19.676L17.0563 15.167L17.3173 15.113ZM15.6523 18.587L16.1473 17.552H18.5773L18.7483 18.587H15.6523ZM25.4252 13.682C25.5752 13.682 25.7042 13.733 25.8122 13.835C25.9262 13.931 25.9832 14.054 25.9832 14.204C25.9832 14.282 25.9652 14.363 25.9292 14.447L23.7062 19.649C23.6522 19.769 23.5742 19.859 23.4722 19.919C23.3762 19.973 23.2772 20 23.1752 20C23.0792 19.994 22.9862 19.964 22.8962 19.91C22.8062 19.85 22.7372 19.766 22.6892 19.658L20.4662 14.438C20.4482 14.402 20.4362 14.366 20.4302 14.33C20.4242 14.288 20.4212 14.249 20.4212 14.213C20.4212 14.039 20.4842 13.907 20.6102 13.817C20.7362 13.721 20.8562 13.673 20.9702 13.673C21.1982 13.673 21.3632 13.79 21.4652 14.024L23.4362 18.659L23.1212 18.668L24.9302 14.024C25.0322 13.796 25.1972 13.682 25.4252 13.682Z" fill="white"/>
</g>
</g>
<defs>
<filter id="filter0_d_105_772" x="-4.875" y="-24" width="60.875" height="60.9287" filterUnits="userSpaceOnUse" color-interpolation-filters="sRGB">
<feFlood flood-opacity="0" result="BackgroundImageFix"/>
<feColorMatrix in="SourceAlpha" type="matrix" values="0 0 0 0 0 0 0 0 0 0 0 0 0 0 0 0 0 0 127 0" result="hardAlpha"/>
<feOffset dx="2" dy="1"/>
<feGaussianBlur stdDeviation="12.5"/>
<feColorMatrix type="matrix" values="0 0 0 0 0 0 0 0 0 0 0 0 0 0 0 0 0 0 0.33 0"/>
<feBlend mode="normal" in2="BackgroundImageFix" result="effect1_dropShadow_105_772"/>
<feBlend mode="normal" in="SourceGraphic" in2="effect1_dropShadow_105_772" result="shape"/>
</filter>
<linearGradient id="paint0_linear_105_772" x1="14.5" y1="0" x2="14.5" y2="33" gradientUnits="userSpaceOnUse">
<stop stop-color="#FF7979"/>
<stop offset="1" stop-color="#E85555"/>
</linearGradient>
<linearGradient id="paint1_linear_105_772" x1="14.5" y1="0" x2="14.5" y2="33" gradientUnits="userSpaceOnUse">
<stop stop-color="#26B8B5" stop-opacity="0.8"/>
<stop offset="1" stop-color="#26B8B5"/>
</linearGradient>
<linearGradient id="paint2_linear_105_772" x1="14.5" y1="0" x2="14.5" y2="33" gradientUnits="userSpaceOnUse">
<stop stop-color="#FF7981"/>
<stop offset="1" stop-color="#E85567"/>
</linearGradient>
<linearGradient id="paint3_linear_105_772" x1="-1.20178" y1="0.0931981" x2="6.0871" y2="19.3432" gradientUnits="userSpaceOnUse">
<stop stop-color="white" stop-opacity="0"/>
<stop offset="1" stop-color="white"/>
</linearGradient>
<linearGradient id="paint4_linear_105_772" x1="-1.84432" y1="-0.201495" x2="2.71739" y2="11.8766" gradientUnits="userSpaceOnUse">
<stop stop-color="white" stop-opacity="0"/>
<stop offset="1" stop-color="white"/>
</linearGradient>
<linearGradient id="paint5_linear_105_772" x1="23.5625" y1="0" x2="23.5625" y2="10.9286" gradientUnits="userSpaceOnUse">
<stop stop-color="#1D8785" stop-opacity="0.8"/>
<stop offset="1" stop-color="#1C8684"/>
</linearGradient>
<clipPath id="clip0_105_772">
<rect width="29" height="33" fill="white"/>
</clipPath>
</defs>
</svg>
