<svg width="57" height="65" viewBox="0 0 57 65" fill="none" xmlns="http://www.w3.org/2000/svg">
<mask id="mask0_3535_115633" style="mask-type:alpha" maskUnits="userSpaceOnUse" x="0" y="0" width="57" height="65">
<path d="M51.7998 64.9258H4.55838C2.04086 64.9258 0 62.879 0 60.3544V5.49721C0 2.97248 2.04086 0.925781 4.55838 0.925781H35.2239L56.3582 22.1206V60.3544C56.3582 62.879 54.3173 64.9258 51.7998 64.9258Z" fill="url(#paint0_linear_3535_115633)"/>
</mask>
<g mask="url(#mask0_3535_115633)">
<path d="M51.7998 64.9258H4.55838C2.04086 64.9258 0 62.879 0 60.3544V5.49721C0 2.97248 2.04086 0.925781 4.55838 0.925781H35.2239L56.3582 22.1206V60.3544C56.3582 62.879 54.3173 64.9258 51.7998 64.9258Z" fill="url(#paint1_linear_3535_115633)"/>
<g opacity="0.82" filter="url(#filter0_f_3535_115633)">
<g style="mix-blend-mode:darken" opacity="0.82">
<path d="M46.8268 31.8867H9.94531V49.3413H46.8268V31.8867Z" fill="#0F7D56" fill-opacity="0.27"/>
</g>
</g>
<path opacity="0.12" fill-rule="evenodd" clip-rule="evenodd" d="M20.3075 34.7963V27.3158H9.7403V34.7963H20.3075ZM7.25391 37.2898V34.7963V26.4846C7.25391 25.5666 7.99603 24.8223 8.9115 24.8223H20.3075H22.7939H33.361H35.8474H47.2434C48.1588 24.8223 48.901 25.5666 48.901 26.4846V55.5755C48.901 56.4935 48.1588 57.2379 47.2434 57.2379H8.9115C7.99603 57.2379 7.25391 56.4935 7.25391 55.5755V47.2638V44.7703V37.2898ZM9.7403 44.7703V37.2898H20.3075V44.7703H9.7403ZM9.7403 47.2638V54.7443H20.3075V47.2638H9.7403ZM22.7939 54.7443H33.361V47.2638H22.7939V54.7443ZM35.8474 54.7443H46.4146V47.2638H35.8474V54.7443ZM46.4146 44.7703V37.2898H35.8474V44.7703H46.4146ZM46.4146 34.7963V27.3158H35.8474V34.7963H46.4146ZM33.361 27.3158H22.7939V34.7963H33.361V27.3158ZM33.361 37.2898V44.7703H22.7939V37.2898H33.361Z" fill="white"/>
<path d="M13.2187 46.0988C13.0332 46.0988 12.8695 46.0332 12.7277 45.9019C12.5967 45.7595 12.5312 45.5954 12.5312 45.4094C12.5312 45.2342 12.5804 45.0811 12.6786 44.9498L16.4597 40.2877L12.7113 35.6585C12.6131 35.5272 12.564 35.3741 12.564 35.1989C12.564 34.9909 12.6295 34.8213 12.7604 34.69C12.9023 34.5477 13.0769 34.4766 13.2842 34.4766C13.4042 34.4766 13.5188 34.504 13.628 34.5587C13.7371 34.6133 13.8244 34.6846 13.8899 34.7721L17.3437 39.1715L20.7975 34.7393C20.9174 34.5641 21.0975 34.4766 21.3376 34.4766C21.5341 34.4766 21.7031 34.5477 21.8451 34.69C21.987 34.8213 22.0579 34.9855 22.0579 35.1825C22.0579 35.3356 22.0141 35.4726 21.9269 35.5929L18.1457 40.2713L21.9269 44.9333C22.0251 45.0428 22.0742 45.185 22.0742 45.3601C22.0742 45.5681 22.0034 45.7431 21.8614 45.8854C21.7305 46.0278 21.5558 46.0988 21.3376 46.0988C21.0975 46.0988 20.9011 45.9949 20.7484 45.7869L17.2454 41.3712L13.7916 45.8034C13.628 46.0004 13.437 46.0988 13.2187 46.0988ZM26.5576 46.0168C26.274 46.0168 26.0284 45.9183 25.821 45.7213C25.6246 45.5133 25.5264 45.2671 25.5264 44.9826V35.2317C25.5264 35.0237 25.5972 34.8488 25.7392 34.7064C25.8811 34.5533 26.0556 34.4766 26.263 34.4766C26.4704 34.4766 26.6448 34.5533 26.7868 34.7064C26.9395 34.8488 27.0159 35.0237 27.0159 35.2317V44.5229H32.3685C32.5759 44.5229 32.7504 44.5996 32.8923 44.7528C33.045 44.8951 33.1215 45.0701 33.1215 45.2781C33.1215 45.4861 33.045 45.661 32.8923 45.8034C32.7504 45.9457 32.5759 46.0168 32.3685 46.0168H26.5576ZM39.7046 46.1809C38.3186 46.1809 37.0201 45.9183 35.8088 45.393C35.6779 45.3383 35.5687 45.2506 35.4815 45.1303C35.394 44.999 35.3505 44.8623 35.3505 44.7199C35.3505 44.534 35.4104 44.3752 35.5306 44.2439C35.6615 44.1015 35.8252 44.0305 36.0216 44.0305C36.1306 44.0305 36.2344 44.0523 36.3326 44.0961C37.3365 44.5448 38.4115 44.7692 39.5573 44.7692C41.4668 44.7692 42.4218 44.14 42.4218 42.8814C42.4218 42.5531 42.2963 42.2794 42.0453 42.0606C41.8052 41.8418 41.5052 41.672 41.1451 41.5517C40.7849 41.4204 40.2719 41.2673 39.6064 41.0921C38.7225 40.8623 38.0076 40.6435 37.4621 40.4355C36.9163 40.2167 36.4472 39.8938 36.0544 39.4669C35.6615 39.0401 35.4651 38.471 35.4651 37.7597C35.4651 37.1359 35.6288 36.5724 35.9562 36.0689C36.2835 35.5546 36.7636 35.1496 37.3966 34.8542C38.0404 34.5477 38.8097 34.3945 39.7046 34.3945C40.9049 34.3945 41.9906 34.5751 42.962 34.9362C43.2674 35.0458 43.4203 35.2646 43.4203 35.5929C43.4203 35.768 43.3602 35.9266 43.2403 36.0689C43.1201 36.2113 42.962 36.2823 42.7656 36.2823C42.7001 36.2823 42.6126 36.2605 42.5037 36.2167C41.6525 35.9212 40.774 35.7734 39.8683 35.7734C39.0061 35.7734 38.3023 35.9376 37.7567 36.2659C37.2219 36.5942 36.9547 37.0539 36.9547 37.6448C36.9547 38.0388 37.08 38.3617 37.3311 38.6133C37.593 38.8542 37.9148 39.0455 38.2969 39.1879C38.6897 39.3192 39.2189 39.4615 39.8847 39.6147C40.7466 39.8227 41.4397 40.0305 41.9635 40.2385C42.4981 40.4465 42.951 40.7692 43.3221 41.207C43.704 41.6448 43.895 42.2358 43.895 42.9799C43.895 43.5927 43.7203 44.1454 43.3712 44.6379C43.0219 45.1193 42.5308 45.4969 41.898 45.7705C41.265 46.0442 40.5338 46.1809 39.7046 46.1809Z" fill="white"/>
<path d="M12.728 45.9014L12.4235 46.1834L12.4348 46.1955L12.4469 46.2069L12.728 45.9014ZM12.6789 44.9493L12.3574 44.6871L12.3523 44.6935L12.3474 44.7L12.6789 44.9493ZM16.4601 40.2873L16.7816 40.5495L16.9941 40.2875L16.7818 40.0253L16.4601 40.2873ZM12.7116 35.6581L12.3801 35.9075L12.3849 35.9139L12.3899 35.9201L12.7116 35.6581ZM12.7607 34.6896L12.4677 34.3958L12.7607 34.6896ZM13.6283 34.5583L13.8136 34.1865L13.6283 34.5583ZM13.8902 34.7717L13.5587 35.021L13.5616 35.025L13.5646 35.0287L13.8902 34.7717ZM17.344 39.171L17.0184 39.4281L17.3452 39.8445L17.6705 39.427L17.344 39.171ZM20.7978 34.7388L21.1243 34.9948L21.132 34.9846L21.1393 34.9743L20.7978 34.7388ZM21.8454 34.6896L21.5524 34.9834L21.5582 34.9892L21.5642 34.995L21.8454 34.6896ZM21.9272 35.5924L22.2492 35.854L22.2561 35.8457L22.2623 35.8368L21.9272 35.5924ZM18.1461 40.2709L17.8241 40.0093L17.6123 40.2713L17.8246 40.5331L18.1461 40.2709ZM21.9272 44.9329L21.6057 45.1951L21.6123 45.2032L21.6191 45.2109L21.9272 44.9329ZM21.8618 45.885L21.5688 45.5912L21.563 45.597L21.5572 45.603L21.8618 45.885ZM20.7487 45.7865L21.0823 45.5401L21.0777 45.5338L21.073 45.5278L20.7487 45.7865ZM17.2458 41.3707L17.5701 41.112L17.2429 40.6996L16.9193 41.1147L17.2458 41.3707ZM13.792 45.8029L14.1103 46.0689L14.1145 46.0639L14.1185 46.0589L13.792 45.8029ZM13.2191 45.6828C13.1423 45.6828 13.0778 45.6598 13.0091 45.596L12.4469 46.2069C12.6619 46.4057 12.9248 46.514 13.2191 46.514V45.6828ZM13.0325 45.6195C12.969 45.5507 12.946 45.4858 12.946 45.409H12.1172C12.1172 45.704 12.2251 45.9677 12.4235 46.1834L13.0325 45.6195ZM12.946 45.409C12.946 45.3173 12.9697 45.2531 13.0104 45.1987L12.3474 44.7C12.1917 44.9082 12.1172 45.1503 12.1172 45.409H12.946ZM13.0004 45.2116L16.7816 40.5495L16.1386 40.0251L12.3574 44.6871L13.0004 45.2116ZM16.7818 40.0253L13.0333 35.3961L12.3899 35.9201L16.1384 40.5493L16.7818 40.0253ZM13.0432 35.4088C13.0024 35.3543 12.9787 35.2901 12.9787 35.1985H12.1499C12.1499 35.4572 12.2244 35.6992 12.3801 35.9075L13.0432 35.4088ZM12.9787 35.1985C12.9787 35.0863 13.0101 35.0272 13.0538 34.9834L12.4677 34.3958C12.2495 34.6146 12.1499 34.8947 12.1499 35.1985H12.9787ZM13.0538 34.9834C13.1151 34.9219 13.183 34.8918 13.2845 34.8918V34.0606C12.9714 34.0606 12.6902 34.1726 12.4677 34.3958L13.0538 34.9834ZM13.2845 34.8918C13.3392 34.8918 13.3904 34.9036 13.443 34.93L13.8136 34.1865C13.6479 34.1034 13.47 34.0606 13.2845 34.0606V34.8918ZM13.443 34.93C13.5014 34.9593 13.5361 34.9909 13.5587 35.021L14.2217 34.5223C14.1133 34.3773 13.9734 34.2667 13.8136 34.1865L13.443 34.93ZM13.5646 35.0287L17.0184 39.4281L17.6696 38.914L14.2158 34.5146L13.5646 35.0287ZM17.6705 39.427L21.1243 34.9948L20.4713 34.4828L17.0175 38.915L17.6705 39.427ZM21.1393 34.9743C21.1708 34.9283 21.2132 34.8918 21.338 34.8918V34.0606C20.9826 34.0606 20.6649 34.1992 20.4563 34.5034L21.1393 34.9743ZM21.338 34.8918C21.4219 34.8918 21.4863 34.9173 21.5524 34.9834L22.1384 34.3958C21.9206 34.1774 21.6469 34.0606 21.338 34.0606V34.8918ZM21.5642 34.995C21.6196 35.0462 21.6438 35.0987 21.6438 35.182H22.4726C22.4726 34.8714 22.3549 34.5957 22.1266 34.3841L21.5642 34.995ZM21.6438 35.182C21.6438 35.2502 21.6264 35.3009 21.5922 35.3481L22.2623 35.8368C22.4028 35.6433 22.4726 35.4204 22.4726 35.182H21.6438ZM21.6053 35.3308L17.8241 40.0093L18.468 40.5325L22.2492 35.854L21.6053 35.3308ZM17.8246 40.5331L21.6057 45.1951L22.2488 44.6707L18.4676 40.0086L17.8246 40.5331ZM21.6191 45.2109C21.6363 45.23 21.6602 45.2668 21.6602 45.3597H22.489C22.489 45.1025 22.4146 44.8546 22.2354 44.6549L21.6191 45.2109ZM21.6602 45.3597C21.6602 45.4615 21.6301 45.5297 21.5688 45.5912L22.1547 46.1788C22.3773 45.9559 22.489 45.6737 22.489 45.3597H21.6602ZM21.5572 45.603C21.5153 45.6485 21.4573 45.6828 21.338 45.6828V46.514C21.6552 46.514 21.9463 46.4059 22.1664 46.167L21.5572 45.603ZM21.338 45.6828C21.2404 45.6828 21.1635 45.6506 21.0823 45.5401L20.4151 46.033C20.6393 46.3382 20.9555 46.514 21.338 46.514V45.6828ZM21.073 45.5278L17.5701 41.112L16.9215 41.6294L20.4244 46.0452L21.073 45.5278ZM16.9193 41.1147L13.4655 45.5469L14.1185 46.0589L17.5723 41.6267L16.9193 41.1147ZM13.4736 45.537C13.3737 45.6573 13.2927 45.6828 13.2191 45.6828V46.514C13.582 46.514 13.8829 46.3426 14.1103 46.0689L13.4736 45.537ZM25.8213 45.7209L25.5205 46.0066L25.5282 46.0149L25.5362 46.0226L25.8213 45.7209ZM25.7395 34.706L26.0325 34.9998L26.0379 34.9944L26.0433 34.9888L25.7395 34.706ZM26.7871 34.706L26.4833 34.9888L26.4939 35L26.5051 35.0106L26.7871 34.706ZM27.0163 44.5225H26.6019V44.9381H27.0163V44.5225ZM32.8926 44.7523L32.5889 45.0351L32.5995 45.0464L32.6106 45.057L32.8926 44.7523ZM32.8926 45.8029L32.6106 45.4983L32.6051 45.5037L32.5997 45.5091L32.8926 45.8029ZM26.5579 45.6008C26.381 45.6008 26.2372 45.5436 26.1062 45.4191L25.5362 46.0226C25.8201 46.2921 26.1674 46.4319 26.5579 46.4319V45.6008ZM26.1222 45.4351C25.9981 45.3038 25.9411 45.1596 25.9411 44.9822H25.1123C25.1123 45.3738 25.2518 45.7221 25.5205 46.0066L26.1222 45.4351ZM25.9411 44.9822V35.2313H25.1123V44.9822H25.9411ZM25.9411 35.2313C25.9411 35.1295 25.9712 35.0613 26.0325 34.9998L25.4465 34.4122C25.224 34.6351 25.1123 34.9173 25.1123 35.2313H25.9411ZM26.0433 34.9888C26.1071 34.9198 26.1719 34.8918 26.2633 34.8918V34.0606C25.9401 34.0606 25.6556 34.1859 25.4358 34.4232L26.0433 34.9888ZM26.2633 34.8918C26.3547 34.8918 26.4195 34.9198 26.4833 34.9888L27.0909 34.4232C26.871 34.1859 26.5865 34.0606 26.2633 34.0606V34.8918ZM26.5051 35.0106C26.5739 35.0746 26.6019 35.1397 26.6019 35.2313H27.4307C27.4307 34.9071 27.3057 34.6218 27.0691 34.4014L26.5051 35.0106ZM26.6019 35.2313V44.5225H27.4307V35.2313H26.6019ZM27.0163 44.9381H32.3688V44.1069H27.0163V44.9381ZM32.3688 44.9381C32.4602 44.9381 32.5251 44.9662 32.5889 45.0351L33.1964 44.4695C32.9766 44.2322 32.6921 44.1069 32.3688 44.1069V44.9381ZM32.6106 45.057C32.6794 45.121 32.7074 45.186 32.7074 45.2776H33.5362C33.5362 44.9535 33.4113 44.6682 33.1746 44.4477L32.6106 45.057ZM32.7074 45.2776C32.7074 45.3693 32.6794 45.4343 32.6106 45.4983L33.1746 46.1076C33.4113 45.8871 33.5362 45.6018 33.5362 45.2776H32.7074ZM32.5997 45.5091C32.5383 45.5706 32.4704 45.6008 32.3688 45.6008V46.4319C32.6819 46.4319 32.9633 46.3199 33.1856 46.0968L32.5997 45.5091ZM32.3688 45.6008H26.5579V46.4319H32.3688V45.6008ZM35.8092 45.3925L35.9735 45.011L35.971 45.01L35.9685 45.009L35.8092 45.3925ZM35.4818 45.1299L35.1368 45.3603L35.1416 45.3674L35.1466 45.3743L35.4818 45.1299ZM35.5309 44.2435L35.2263 43.9615L35.2253 43.9627L35.5309 44.2435ZM36.333 44.0957L36.5016 43.7161L36.5012 43.7159L36.333 44.0957ZM42.0457 42.0602L41.7668 42.3677L41.7703 42.3708L41.7736 42.3737L42.0457 42.0602ZM41.1454 41.5513L41.0037 41.9419L41.0089 41.9438L41.0142 41.9455L41.1454 41.5513ZM39.6067 41.0917L39.7118 40.6896L39.7105 40.6894L39.6067 41.0917ZM37.4624 40.435L37.3085 40.8209L37.3118 40.8222L37.3151 40.8236L37.4624 40.435ZM36.0547 39.4665L35.7501 39.7485L36.0547 39.4665ZM35.9565 36.0685L36.3036 36.2956L36.3046 36.2937L36.3056 36.2921L35.9565 36.0685ZM37.397 34.8537L37.5718 35.2305L37.5731 35.2298L37.5745 35.2292L37.397 34.8537ZM42.9623 34.9358L42.8181 35.3254L42.8206 35.3263L42.8229 35.3271L42.9623 34.9358ZM43.2406 36.0685L43.5568 36.337L43.2406 36.0685ZM42.504 36.2162L42.6577 35.8304L42.6486 35.8266L42.6395 35.8235L42.504 36.2162ZM37.7571 36.2655L37.5439 35.9091L37.5422 35.9102L37.5405 35.911L37.7571 36.2655ZM37.3315 38.6129L37.0383 38.9067L37.0447 38.9132L37.0513 38.9192L37.3315 38.6129ZM38.2972 39.1875L38.1528 39.5771L38.1594 39.5796L38.1661 39.5816L38.2972 39.1875ZM39.885 39.6143L39.9818 39.2101L39.9797 39.2097L39.9776 39.2093L39.885 39.6143ZM41.9638 40.2381L41.8111 40.6245L41.8138 40.6256L41.9638 40.2381ZM43.3224 41.2066L43.0067 41.4757L43.0085 41.4779L43.0104 41.4802L43.3224 41.2066ZM43.3715 44.6374L43.7066 44.8818L43.7078 44.8801L43.7091 44.8783L43.3715 44.6374ZM41.8984 45.7701L42.0623 46.1518L41.8984 45.7701ZM39.7049 45.7649C38.3727 45.7649 37.1303 45.5129 35.9735 45.011L35.6447 45.7741C36.9104 46.3228 38.2653 46.5961 39.7049 46.5961V45.7649ZM35.9685 45.009C35.9111 44.9849 35.8616 44.947 35.8169 44.8855L35.1466 45.3743C35.2765 45.5534 35.4451 45.6907 35.6496 45.7761L35.9685 45.009ZM35.8266 44.8995C35.7794 44.8286 35.7653 44.7708 35.7653 44.7195H34.9365C34.9365 44.9526 35.0094 45.1685 35.1368 45.3603L35.8266 44.8995ZM35.7653 44.7195C35.7653 44.6324 35.7897 44.5753 35.8363 44.5242L35.2253 43.9627C35.032 44.1743 34.9365 44.4346 34.9365 44.7195H35.7653ZM35.8353 44.5254C35.8863 44.4699 35.9389 44.4456 36.022 44.4456V43.6145C35.712 43.6145 35.4373 43.7325 35.2263 43.9615L35.8353 44.5254ZM36.022 44.4456C36.074 44.4456 36.1202 44.4556 36.1645 44.4756L36.5012 43.7159C36.3491 43.6481 36.1882 43.6145 36.022 43.6145V44.4456ZM36.1641 44.4753C37.2235 44.9487 38.3561 45.1843 39.5576 45.1843V44.3532C38.4673 44.3532 37.4502 44.14 36.5016 43.7161L36.1641 44.4753ZM39.5576 45.1843C40.5445 45.1843 41.3569 45.0241 41.9336 44.6441C42.5405 44.2441 42.8366 43.6338 42.8366 42.881H42.0078C42.0078 43.3865 41.8263 43.7202 41.4784 43.9494C41.1002 44.1988 40.4801 44.3532 39.5576 44.3532V45.1843ZM42.8366 42.881C42.8366 42.4303 42.6573 42.0429 42.3175 41.7466L41.7736 42.3737C41.9359 42.5152 42.0078 42.675 42.0078 42.881H42.8366ZM42.3244 41.7526C42.0349 41.4888 41.682 41.2926 41.2763 41.1571L41.0142 41.9455C41.3288 42.0506 41.5762 42.1938 41.7668 42.3677L42.3244 41.7526ZM41.2869 41.1606C40.909 41.0229 40.3817 40.866 39.7118 40.6896L39.5015 41.4937C40.1629 41.6677 40.6614 41.8171 41.0037 41.9419L41.2869 41.1606ZM39.7105 40.6894C38.8343 40.4614 38.1354 40.247 37.6095 40.0465L37.3151 40.8236C37.8803 41.0389 38.6113 41.2623 39.5027 41.4939L39.7105 40.6894ZM37.6162 40.0492C37.127 39.853 36.7095 39.5652 36.3591 39.1845L35.7501 39.7485C36.1855 40.2214 36.7064 40.5795 37.3085 40.8209L37.6162 40.0492ZM36.3591 39.1845C36.052 38.851 35.8798 38.3908 35.8798 37.7593H35.051C35.051 38.5504 35.2715 39.2284 35.7501 39.7485L36.3591 39.1845ZM35.8798 37.7593C35.8798 37.2128 36.0218 36.7286 36.3036 36.2956L35.6092 35.8414C35.2363 36.4151 35.051 37.0582 35.051 37.7593H35.8798ZM36.3056 36.2921C36.5847 35.8538 36.9995 35.4977 37.5718 35.2305L37.2219 34.477C36.5284 34.8007 35.9828 35.2546 35.6072 35.8449L36.3056 36.2921ZM37.5745 35.2292C38.1505 34.9551 38.8563 34.8097 39.7049 34.8097V33.9785C38.7638 33.9785 37.9309 34.1396 37.2192 34.4783L37.5745 35.2292ZM39.7049 34.8097C40.8638 34.8097 41.8998 34.984 42.8181 35.3254L43.1063 34.5462C42.0823 34.1653 40.9467 33.9785 39.7049 33.9785V34.8097ZM42.8229 35.3271C42.9126 35.3593 42.9493 35.3957 42.9665 35.4204C42.9839 35.4453 43.0063 35.4937 43.0063 35.5924H43.835C43.835 35.3628 43.7808 35.1376 43.6455 34.9437C43.51 34.7494 43.3175 34.6216 43.1016 34.5445L42.8229 35.3271ZM43.0063 35.5924C43.0063 35.6627 42.9853 35.7275 42.9242 35.8L43.5568 36.337C43.7358 36.1248 43.835 35.8725 43.835 35.5924H43.0063ZM42.9242 35.8C42.8879 35.843 42.8484 35.8663 42.7659 35.8663V36.6975C43.0763 36.6975 43.3531 36.5784 43.5568 36.337L42.9242 35.8ZM42.7659 35.8663C42.7769 35.8663 42.7738 35.8678 42.7518 35.8624C42.7307 35.857 42.7 35.8472 42.6577 35.8304L42.3501 36.6021C42.4754 36.6524 42.6213 36.6975 42.7659 36.6975V35.8663ZM42.6395 35.8235C41.7444 35.5129 40.8201 35.3574 39.8686 35.3574V36.1886C40.7283 36.1886 41.561 36.3286 42.3683 36.609L42.6395 35.8235ZM39.8686 35.3574C38.957 35.3574 38.1727 35.5307 37.5439 35.9091L37.9703 36.6218C38.4325 36.3436 39.0558 36.1886 39.8686 36.1886V35.3574ZM37.5405 35.911C36.8924 36.3091 36.5406 36.898 36.5406 37.6444H37.3694C37.3694 37.2089 37.5521 36.8785 37.9734 36.62L37.5405 35.911ZM36.5406 37.6444C36.5406 38.1356 36.701 38.5684 37.0383 38.9067L37.6245 38.3191C37.4597 38.1539 37.3694 37.9411 37.3694 37.6444H36.5406ZM37.0513 38.9192C37.358 39.2012 37.7281 39.4187 38.1528 39.5771L38.4414 38.7978C38.1025 38.6715 37.8286 38.5061 37.6114 38.3066L37.0513 38.9192ZM38.1661 39.5816C38.577 39.719 39.1206 39.8649 39.7922 40.0192L39.9776 39.2093C39.3177 39.0574 38.803 38.9186 38.4282 38.7933L38.1661 39.5816ZM39.788 40.0184C40.6407 40.2239 41.3128 40.4265 41.8111 40.6245L42.1163 39.8516C41.5673 39.6336 40.8535 39.4204 39.9818 39.2101L39.788 40.0184ZM41.8138 40.6256C42.2844 40.8084 42.6803 41.0906 43.0067 41.4757L43.638 40.9375C43.2224 40.4469 42.7124 40.0835 42.1136 39.8505L41.8138 40.6256ZM43.0104 41.4802C43.3096 41.8231 43.4809 42.307 43.4809 42.9795H44.3097C44.3097 42.1635 44.099 41.4657 43.6343 40.9329L43.0104 41.4802ZM43.4809 42.9795C43.4809 43.5072 43.3324 43.9756 43.0338 44.3966L43.7091 44.8783C44.109 44.3143 44.3097 43.6772 44.3097 42.9795H43.4809ZM43.0363 44.3931C42.7375 44.8051 42.3101 45.1397 41.7343 45.3884L42.0623 46.1518C42.7524 45.8534 43.3071 45.4329 43.7066 44.8818L43.0363 44.3931ZM41.7343 45.3884C41.1626 45.6357 40.489 45.7649 39.7049 45.7649V46.5961C40.5793 46.5961 41.3681 46.4519 42.0623 46.1518L41.7343 45.3884Z" fill="white"/>
<mask id="mask1_3535_115633" style="mask-type:alpha" maskUnits="userSpaceOnUse" x="0" y="0" width="57" height="65">
<path d="M51.7998 64.9258H4.55838C2.04086 64.9258 0 62.879 0 60.3544V5.49721C0 2.97248 2.04086 0.925781 4.55838 0.925781H35.2239L56.3582 22.1206V60.3544C56.3582 62.879 54.3173 64.9258 51.7998 64.9258Z" fill="url(#paint2_linear_3535_115633)"/>
</mask>
<g mask="url(#mask1_3535_115633)">
<path opacity="0.05" d="M-3.00346 42.9007C22.5723 42.9007 43.3056 22.9454 43.3056 -1.67076C43.3056 -26.2869 22.5723 -46.2422 -3.00346 -46.2422C-28.5792 -46.2422 -49.3125 -26.2869 -49.3125 -1.67076C-49.3125 22.9454 -28.5792 42.9007 -3.00346 42.9007Z" fill="url(#paint3_linear_3535_115633)"/>
<path opacity="0.07" d="M-3.00178 26.277C13.0761 26.277 26.1097 13.7642 26.1097 -1.67109C26.1097 -17.1064 13.0761 -29.6191 -3.00178 -29.6191C-19.0796 -29.6191 -32.1133 -17.1064 -32.1133 -1.67109C-32.1133 13.7642 -19.0796 26.277 -3.00178 26.277Z" fill="url(#paint4_linear_3535_115633)"/>
<g filter="url(#filter1_d_3535_115633)">
<path d="M56.357 22.1206H39.781C37.2636 22.1206 35.2227 20.0739 35.2227 17.5492V0.925781L56.357 22.1206Z" fill="url(#paint5_linear_3535_115633)"/>
</g>
</g>
</g>
<defs>
<filter id="filter0_f_3535_115633" x="-29.0547" y="-7.11328" width="114.883" height="95.4551" filterUnits="userSpaceOnUse" color-interpolation-filters="sRGB">
<feFlood flood-opacity="0" result="BackgroundImageFix"/>
<feBlend mode="normal" in="SourceGraphic" in2="BackgroundImageFix" result="shape"/>
<feGaussianBlur stdDeviation="19.5" result="effect1_foregroundBlur_3535_115633"/>
</filter>
<filter id="filter1_d_3535_115633" x="12.2227" y="-23.0742" width="71.1328" height="71.1953" filterUnits="userSpaceOnUse" color-interpolation-filters="sRGB">
<feFlood flood-opacity="0" result="BackgroundImageFix"/>
<feColorMatrix in="SourceAlpha" type="matrix" values="0 0 0 0 0 0 0 0 0 0 0 0 0 0 0 0 0 0 127 0" result="hardAlpha"/>
<feOffset dx="2" dy="1"/>
<feGaussianBlur stdDeviation="12.5"/>
<feColorMatrix type="matrix" values="0 0 0 0 0 0 0 0 0 0 0 0 0 0 0 0 0 0 0.33 0"/>
<feBlend mode="normal" in2="BackgroundImageFix" result="effect1_dropShadow_3535_115633"/>
<feBlend mode="normal" in="SourceGraphic" in2="effect1_dropShadow_3535_115633" result="shape"/>
</filter>
<linearGradient id="paint0_linear_3535_115633" x1="28.1791" y1="0.925781" x2="28.1791" y2="64.9258" gradientUnits="userSpaceOnUse">
<stop stop-color="#FF7979"/>
<stop offset="1" stop-color="#E85555"/>
</linearGradient>
<linearGradient id="paint1_linear_3535_115633" x1="28.1791" y1="0.925781" x2="28.1791" y2="64.9258" gradientUnits="userSpaceOnUse">
<stop offset="0.000265127" stop-color="#83CC70"/>
<stop offset="1" stop-color="#61A850"/>
</linearGradient>
<linearGradient id="paint2_linear_3535_115633" x1="28.1791" y1="0.925781" x2="28.1791" y2="64.9258" gradientUnits="userSpaceOnUse">
<stop offset="0.000265127" stop-color="#83CC70"/>
<stop offset="1" stop-color="#61A850"/>
</linearGradient>
<linearGradient id="paint3_linear_3535_115633" x1="0.358913" y1="-0.139096" x2="14.4731" y2="37.2134" gradientUnits="userSpaceOnUse">
<stop stop-color="white" stop-opacity="0"/>
<stop offset="1" stop-color="white"/>
</linearGradient>
<linearGradient id="paint4_linear_3535_115633" x1="-0.888078" y1="-0.710674" x2="7.94523" y2="22.7256" gradientUnits="userSpaceOnUse">
<stop stop-color="white" stop-opacity="0"/>
<stop offset="1" stop-color="white"/>
</linearGradient>
<linearGradient id="paint5_linear_3535_115633" x1="45.7898" y1="0.925781" x2="45.7898" y2="22.1206" gradientUnits="userSpaceOnUse">
<stop stop-color="#3FAF43"/>
<stop offset="1" stop-color="#0E8312"/>
</linearGradient>
</defs>
</svg>
